<?xml version="1.0" standalone="no"?>
<!DOCTYPE svg PUBLIC "-//W3C//DTD SVG 20010904//EN"
 "http://www.w3.org/TR/2001/REC-SVG-20010904/DTD/svg10.dtd">
<svg version="1.0" xmlns="http://www.w3.org/2000/svg"
 width="200.000000pt" height="200.000000pt" viewBox="0 0 200.000000 200.000000"
 preserveAspectRatio="xMidYMid meet">
<metadata>
Created by potrace 1.11, written by Peter Selinger 2001-2013
</metadata>
<g transform="translate(0.000000,200.000000) scale(0.100000,-0.100000)"
fill="#000000" stroke="none">
<path d="M939 1686 c-2 -2 -22 -7 -43 -10 -22 -4 -80 -20 -130 -37 -374 -125
-656 -466 -656 -794 0 -175 100 -258 435 -359 293 -89 397 -147 471 -262 50
-78 100 -83 220 -24 198 97 389 321 571 670 52 101 128 273 139 315 l6 25 -73
-3 -73 -4 -32 -79 c-85 -212 -165 -309 -326 -395 -48 -26 -49 -26 -126 -12
-141 26 -222 76 -267 163 -71 138 -61 305 26 470 65 121 49 112 201 113 174 0
239 -8 381 -44 86 -22 138 -29 193 -28 41 1 74 5 74 9 0 4 -17 14 -37 23 -21
8 -109 44 -195 80 -294 122 -528 187 -677 187 -43 0 -80 -2 -82 -4z"/>
</g>
</svg>
