<svg width="331" height="104" viewBox="0 0 331 104" fill="none" xmlns="http://www.w3.org/2000/svg">
<path fill-rule="evenodd" clip-rule="evenodd" d="M33.1553 56.9618L40.3711 53.0591L39.9601 0L20.5856 0.914524L19.7664 60.9479L31.1334 61.0702L33.1553 56.9618Z" fill="#32293C"/>
<path fill-rule="evenodd" clip-rule="evenodd" d="M26.8442 69.7818L29.4756 64.4392L17.1817 64.3225L18.1003 4.52539L17.7996 4.53651L12.0319 4.75055L10.7245 65.9569L1.27167 76.1863L0.496582 96.909L25.2526 96.8701L26.8442 69.7818Z" fill="#32293C"/>
<path fill-rule="evenodd" clip-rule="evenodd" d="M48.817 48.4891L48.1743 3.57178L42.8618 3.60235L42.4839 3.61625L42.9032 51.6885L48.817 48.4891Z" fill="#32293C"/>
<path fill-rule="evenodd" clip-rule="evenodd" d="M30.4243 70.6824L28.8135 96.6393L75.5396 96.7922L75.8348 82.4795L77.9477 82.6018V75.2467L80.6646 72.2057L83.1802 75.1466L83.0864 82.9048L85.0917 83.0215L85.3896 96.8284L111.453 96.9145L110.75 70.688L92.7075 60.0417L52.16 51.2217L36.3299 59.3329L30.4243 70.6824ZM107.023 75.4496L108.935 78.1876V85.1842L105.412 85.3871L105.313 78.0876L107.023 75.4496ZM99.6778 74.435L101.691 77.2731L101.893 84.7755L97.667 84.8784L97.5677 77.376L99.6778 74.435ZM91.0249 73.7262L92.9364 76.8701L92.7351 84.5754H88.81L88.6086 76.4642L91.0249 73.7262ZM67.2812 74.0292L69.7968 71.0883L72.111 73.9263L72.2103 83.1522L66.9778 83.0521L67.2812 74.0292ZM54.7059 72.4086L57.7236 69.1647L60.2392 72.5115L60.0378 82.246L54.5046 82.0431L54.7059 72.4086ZM42.1279 70.9882L45.1456 67.3384L48.1632 71.294L47.9618 81.5344L41.8245 81.3315L42.1279 70.9882Z" fill="#32293C"/>
<path d="M111.45 100.361H0V104H111.45V100.361Z" fill="#32293C"/>
<path d="M132.226 99.6637L134.157 94.941C136.223 96.4004 138.253 97.1314 140.253 97.1314C143.323 97.1314 144.859 96.0501 144.859 93.8875C144.859 92.8729 144.498 91.9083 143.773 90.9883C143.047 90.0682 141.558 89.0397 139.296 87.8972C137.037 86.7548 135.514 85.8152 134.728 85.0786C133.942 84.342 133.341 83.4664 132.919 82.4518C132.497 81.4372 132.284 80.317 132.284 79.0856C132.284 76.7867 133.12 74.8826 134.789 73.3677C136.457 71.8528 138.601 71.0967 141.216 71.0967C144.622 71.0967 147.124 71.7388 148.721 73.023L147.132 77.5651C145.295 76.2419 143.356 75.5776 141.318 75.5776C140.11 75.5776 139.174 75.9 138.51 76.5393C137.845 77.1815 137.514 78.0154 137.514 79.0439C137.514 80.7478 139.384 82.5185 143.127 84.3559C145.099 85.3288 146.52 86.2239 147.392 87.0411C148.263 87.8583 148.928 88.8118 149.383 89.8986C149.838 90.9883 150.067 92.2002 150.067 93.5373C150.067 95.9445 149.124 97.9236 147.24 99.4775C145.356 101.031 142.829 101.81 139.665 101.81C136.921 101.812 134.438 101.098 132.226 99.6637Z" fill="#32293C"/>
<path d="M171.295 81.3148L169.144 85.1063C167.963 83.9833 166.38 83.4246 164.397 83.4246C162.493 83.4246 160.987 84.0639 159.881 85.3398C158.775 86.6185 158.221 88.3836 158.221 90.6407C158.221 95.1967 160.372 97.4733 164.678 97.4733C166.543 97.4733 168.187 96.8506 169.607 95.6081L171.458 99.6025C169.996 100.523 168.719 101.104 167.627 101.345C166.534 101.59 165.243 101.71 163.754 101.71C160.427 101.71 157.801 100.734 155.879 98.7797C153.954 96.8256 152.991 94.1126 152.991 90.6407C152.991 87.2217 154.045 84.4559 156.149 82.3489C158.254 80.2391 161.125 79.1855 164.761 79.1855C167.265 79.1855 169.444 79.8972 171.295 81.3148Z" fill="#32293C"/>
<path d="M189.423 101.306V87.9249C189.423 86.5879 189.007 85.5121 188.176 84.7005C187.343 83.8888 186.259 83.483 184.916 83.483C184.083 83.483 183.247 83.7081 182.4 84.1612C181.556 84.6143 180.952 85.1313 180.591 85.7123V101.304H175.48V71.5024L180.591 70.2849V80.9701C181.893 79.7804 183.683 79.1855 185.961 79.1855C188.656 79.1855 190.75 79.9388 192.239 81.4454C193.726 82.952 194.474 85.1119 194.474 87.9222V101.304H189.423V101.306Z" fill="#32293C"/>
<path d="M198.498 90.399C198.498 87.0884 199.447 84.3921 201.345 82.3101C203.242 80.2281 205.747 79.1885 208.858 79.1885C212.13 79.1885 214.673 80.1891 216.482 82.1905C218.292 84.1919 219.199 86.9272 219.199 90.4018C219.199 93.8625 218.278 96.6117 216.433 98.6548C214.587 100.695 212.063 101.715 208.858 101.715C205.584 101.715 203.041 100.684 201.223 98.6242C199.405 96.5589 198.498 93.8181 198.498 90.399ZM202.983 70.8938C203.775 70.8938 204.448 71.1773 205.005 71.7444C205.562 72.3115 205.841 72.9953 205.841 73.793C205.841 74.5908 205.562 75.2691 205.005 75.8306C204.448 76.3921 203.775 76.6728 202.983 76.6728C202.191 76.6728 201.516 76.3921 200.95 75.8306C200.387 75.2691 200.106 74.5908 200.106 73.793C200.106 72.9953 200.387 72.3142 200.95 71.7444C201.516 71.1773 202.191 70.8938 202.983 70.8938ZM203.728 90.399C203.728 95.1829 205.438 97.5762 208.858 97.5762C210.428 97.5762 211.672 96.9536 212.59 95.7111C213.509 94.4685 213.969 92.6978 213.969 90.399C213.969 85.6819 212.268 83.3219 208.858 83.3219C207.289 83.3219 206.042 83.9445 205.115 85.1871C204.191 86.4324 203.728 88.1697 203.728 90.399ZM215.456 70.8938C216.248 70.8938 216.921 71.1773 217.478 71.7444C218.035 72.3115 218.314 72.9953 218.314 73.793C218.314 74.5908 218.035 75.2691 217.478 75.8306C216.921 76.3921 216.248 76.6728 215.456 76.6728C214.665 76.6728 213.989 76.3921 213.423 75.8306C212.861 75.2691 212.579 74.5908 212.579 73.793C212.579 72.9953 212.861 72.3142 213.423 71.7444C213.989 71.1773 214.665 70.8938 215.456 70.8938Z" fill="#32293C"/>
<path d="M237.084 101.306V88.7559C237.084 86.9046 236.731 85.5537 236.028 84.7003C235.324 83.8498 234.174 83.4217 232.577 83.4217C231.841 83.4217 231.052 83.6302 230.213 84.0499C229.375 84.4696 228.721 84.9894 228.252 85.6121V101.304H223.224V79.5885H226.845L227.772 81.6149C229.14 79.9915 231.159 79.1826 233.827 79.1826C236.389 79.1826 238.411 79.9554 239.892 81.5037C241.373 83.052 242.115 85.2118 242.115 87.9804V101.301H237.084V101.306Z" fill="#32293C"/>
<path d="M261.49 101.306V87.9249C261.49 86.5879 261.073 85.5121 260.243 84.7005C259.41 83.8888 258.326 83.483 256.983 83.483C256.15 83.483 255.314 83.7081 254.467 84.1612C253.623 84.6143 253.019 85.1313 252.658 85.7123V101.304H247.547V71.5024L252.658 70.2849V80.9701C253.96 79.7804 255.75 79.1855 258.028 79.1855C260.723 79.1855 262.817 79.9388 264.306 81.4454C265.796 82.952 266.54 85.1119 266.54 87.9222V101.304H261.49V101.306Z" fill="#32293C"/>
<path d="M291.205 91.9999H275.814C275.908 93.7317 276.498 95.0743 277.585 96.036C278.672 96.995 280.134 97.4759 281.971 97.4759C284.266 97.4759 286.009 96.8755 287.2 95.6719L289.151 99.544C287.38 100.989 284.737 101.712 281.223 101.712C277.938 101.712 275.34 100.742 273.428 98.8018C271.517 96.8616 270.562 94.157 270.562 90.6823C270.562 87.2633 271.613 84.4919 273.712 82.371C275.811 80.2501 278.33 79.1882 281.267 79.1882C284.392 79.1882 286.9 80.1278 288.792 82.0069C290.684 83.8859 291.628 86.2793 291.628 89.1841C291.628 89.8039 291.487 90.7435 291.205 91.9999ZM275.996 88.1889H286.577C286.229 85.0117 284.483 83.4245 281.347 83.4245C278.476 83.4245 276.691 85.0117 275.996 88.1889Z" fill="#32293C"/>
<path d="M308.106 84.3169C307.207 83.722 306.222 83.4246 305.149 83.4246C303.982 83.4246 302.945 83.9583 302.04 85.0257C301.135 86.0931 300.683 87.3968 300.683 88.9395V101.306H295.655V79.5914H300.683V81.5789C302.093 79.9833 303.963 79.1855 306.296 79.1855C308.015 79.1855 309.328 79.4496 310.241 79.9778L308.106 84.3169Z" fill="#32293C"/>
<path d="M311.846 101.306V99.583L323.536 84.0111H312.048V79.5913H330.879V81.3759L319.611 96.8866H331V101.306H311.846Z" fill="#32293C"/>
</svg>
