<svg width="303" height="81" viewBox="0 0 303 81" fill="none" xmlns="http://www.w3.org/2000/svg">
<g clip-path="url(#clip0)">
<path d="M135.429 0V22.3812C135.421 22.3764 135.414 22.3716 135.409 22.3644C132.539 20.1054 128.916 18.7562 124.978 18.7562C120.335 18.7562 116.133 20.6287 113.087 23.6607C112.166 24.5754 111.352 25.5956 110.662 26.7023C109.156 29.1198 108.247 31.9477 108.141 34.9797V36.1248C108.244 39.152 109.151 41.9776 110.655 44.395C111.343 45.5017 112.156 46.522 113.077 47.439C116.125 50.4735 120.333 52.3508 124.978 52.3508C128.916 52.3508 132.539 51.0016 135.409 48.7426C135.417 48.7378 135.424 48.733 135.429 48.7258C135.939 48.3225 136.422 47.8928 136.882 47.4366C137.798 46.5244 138.609 45.5041 139.297 44.4022C140.87 41.8744 141.792 38.9 141.823 35.7143V31.554H141.813V18.7154H141.806L141.809 18.713H141.85V0H135.429ZM124.978 45.9531C122.101 45.9531 119.493 44.7911 117.607 42.909C117.04 42.3425 116.534 41.7111 116.109 41.0269C115.115 39.4329 114.542 37.5508 114.542 35.5367C114.542 33.5273 115.113 31.6524 116.099 30.0608C116.525 29.3718 117.03 28.7381 117.6 28.1691C119.489 26.287 122.096 25.1203 124.978 25.1203C127.858 25.1203 130.463 26.2846 132.352 28.1643C132.927 28.7357 133.434 29.3742 133.863 30.0656C134.789 31.5588 135.347 33.3041 135.409 35.1766C135.414 35.2942 135.417 35.4142 135.417 35.5343C135.417 35.6543 135.414 35.7743 135.409 35.892C135.347 37.7741 134.782 39.5265 133.848 41.0269C133.422 41.7087 132.92 42.3401 132.354 42.9042C130.463 44.7911 127.858 45.9531 124.978 45.9531Z" fill="#32293C"/>
<path d="M227.615 18.8523H221.242V52.358H227.615V18.8523Z" fill="#32293C"/>
<path d="M300.491 26.6831C299.8 25.5692 298.982 24.5394 298.056 23.6199C297.592 23.1566 297.101 22.7197 296.584 22.314C293.714 20.055 290.091 18.7058 286.153 18.7058C282.217 18.7058 278.599 20.0526 275.731 22.3092C275.209 22.7197 274.714 23.159 274.247 23.6247C273.328 24.5418 272.512 25.5644 271.824 26.6735C270.326 29.0862 269.421 31.9069 269.318 34.9293V36.1273C269.469 40.542 271.326 44.5247 274.254 47.4391C274.721 47.9048 275.214 48.3417 275.734 48.7498V36.0648C275.724 35.8824 275.719 35.6999 275.719 35.5175C275.719 35.335 275.724 35.1502 275.734 34.9701C275.827 33.1697 276.378 31.4892 277.276 30.044C277.701 29.3551 278.207 28.7213 278.779 28.1523C280.668 26.2702 283.275 25.1035 286.158 25.1035C289.037 25.1035 291.643 26.2678 293.531 28.1475C294.106 28.7189 294.614 29.3575 295.042 30.0488C295.968 31.542 296.526 33.2873 296.589 35.1598C296.593 35.2798 296.596 35.3975 296.596 35.5175C296.596 35.6375 296.593 35.7576 296.589 35.8752V52.3364H303.005V35.3423C302.969 32.1686 302.054 29.2038 300.491 26.6831Z" fill="#32293C"/>
<path d="M179.234 32.3198C177.726 24.5778 170.896 18.7346 162.697 18.7346C158.047 18.7346 153.837 20.6143 150.789 23.6535C148.463 25.9725 146.812 28.9685 146.158 32.3198C145.992 33.1769 145.889 34.0603 145.857 34.9581V36.1321C145.889 37.0299 145.99 37.9109 146.156 38.7656C147.662 46.51 154.494 52.3556 162.695 52.3556C167.343 52.3556 171.55 50.4783 174.598 47.4415L170.068 42.9163C168.18 44.7984 165.574 45.9603 162.695 45.9603C158.057 45.9603 154.126 42.9427 152.766 38.768H179.232C179.424 37.7813 179.53 36.761 179.539 35.7191V35.371C179.532 34.3292 179.426 33.3089 179.234 32.3198ZM152.771 32.3198C153.286 30.7402 154.169 29.3262 155.319 28.1787C157.207 26.2966 159.815 25.1299 162.697 25.1299C167.333 25.1299 171.261 28.1451 172.623 32.3174H152.771V32.3198Z" fill="#32293C"/>
<path d="M262.798 26.6712C262.108 25.5573 261.29 24.5274 260.364 23.608C259.899 23.1446 259.409 22.7077 258.891 22.302C256.021 20.043 252.398 18.6938 248.46 18.6938C244.525 18.6938 240.906 20.0406 238.039 22.2972C237.519 22.7077 237.021 23.147 236.555 23.6128C235.636 24.5298 234.82 25.5525 234.132 26.6616C232.852 28.7237 232.005 31.0835 231.721 33.6114C231.673 34.0411 231.642 34.4781 231.625 34.9174V36.0913C231.729 39.1185 232.636 41.944 234.139 44.3615C234.827 45.4682 235.64 46.4885 236.562 47.4055C237.028 47.8712 237.522 48.3081 238.041 48.7162C240.909 50.9729 244.529 52.3196 248.463 52.3196C252.401 52.3196 256.024 50.9705 258.894 48.7115C259.411 48.3057 259.902 47.8688 260.366 47.4055C261.283 46.4933 262.093 45.473 262.781 44.3711C264.355 41.8432 265.276 38.8688 265.307 35.6832V35.3351C265.276 32.1566 264.362 29.1942 262.798 26.6712ZM248.46 45.9219C245.583 45.9219 242.975 44.76 241.089 42.8779C240.521 42.3113 240.016 41.68 239.59 40.9958C238.688 39.5482 238.133 37.8606 238.039 36.0529C238.029 35.8704 238.024 35.688 238.024 35.5055C238.024 35.3207 238.029 35.1382 238.039 34.9582C238.133 33.1577 238.684 31.4773 239.581 30.0321C240.007 29.3431 240.512 28.7093 241.082 28.1404C242.971 26.2583 245.578 25.0916 248.46 25.0916C251.34 25.0916 253.945 26.2559 255.834 28.1356C256.409 28.7069 256.916 29.3455 257.345 30.0369C258.271 31.5301 258.829 33.2753 258.891 35.1478C258.896 35.2655 258.899 35.3855 258.899 35.5055C258.899 35.6256 258.896 35.7456 258.891 35.8632C258.829 37.7453 258.264 39.4978 257.33 40.9982C256.904 41.68 256.401 42.3113 255.836 42.8755C253.945 44.7576 251.34 45.9219 248.46 45.9219Z" fill="#32293C"/>
<path d="M265.307 64.1883C265.307 67.4412 264.381 70.478 262.779 73.0515C262.091 74.1558 261.28 75.1737 260.364 76.0859C259.899 76.5492 259.406 76.9861 258.891 77.3918C256.021 79.6508 252.398 81 248.46 81C244.525 81 240.906 79.6532 238.039 77.3966C237.522 76.9885 237.026 76.5516 236.559 76.0859L238.039 74.6071L241.089 71.5583C242.978 73.438 245.583 74.6023 248.46 74.6023C251.34 74.6023 253.945 73.438 255.834 71.5583C256.401 70.9941 256.904 70.3628 257.328 69.681C258.264 68.1806 258.826 66.4257 258.889 64.546C258.894 64.4284 258.896 64.3084 258.896 64.1883C258.896 64.0683 258.894 63.9483 258.889 63.8306C258.826 61.9605 258.268 60.2153 257.342 58.7197C256.914 58.0283 256.406 57.3897 255.831 56.8184L258.889 53.7624L260.361 52.2908C261.285 53.2126 262.105 54.2401 262.796 55.354C264.388 57.9203 265.307 60.9475 265.307 64.1883Z" fill="#32293C"/>
<path d="M66.4333 47.4439C63.3852 50.4807 59.1777 52.358 54.5299 52.358C49.8845 52.358 45.6769 50.4807 42.6289 47.4463C39.7011 44.5319 37.8439 40.5493 37.6924 36.1345V34.9606C37.8439 30.5482 39.6987 26.5679 42.6217 23.656C45.6697 20.6168 49.8796 18.7371 54.5299 18.7371C59.1777 18.7371 63.3852 20.6144 66.4333 23.6512L61.9033 28.1788C60.0149 26.2967 57.4095 25.1348 54.5299 25.1348C51.6502 25.1348 49.0401 26.2991 47.1516 28.1836C45.2607 30.0681 44.0915 32.6728 44.0915 35.5511C44.0915 38.4319 45.2631 41.039 47.1564 42.9235C49.0449 44.8032 51.6502 45.9675 54.5275 45.9675C57.4071 45.9675 60.0124 44.8032 61.9009 42.9235L66.4333 47.4439Z" fill="#32293C"/>
<path d="M99.1891 23.6415C98.7224 23.1782 98.2293 22.7389 97.712 22.3332C94.8445 20.0742 91.2215 18.7274 87.2858 18.7274C83.35 18.7274 79.7319 20.0742 76.8643 22.3308V20.8039V18.7178V0H70.4435V20.7991L70.4507 20.8063V34.9533V36.1272C70.6023 40.542 72.4595 44.5247 75.3872 47.4391C75.8539 47.9048 76.3471 48.3417 76.8667 48.7498V36.0888C76.8571 35.9064 76.8523 35.7239 76.8523 35.5415C76.8523 35.3566 76.8571 35.1742 76.8667 34.9941C76.9605 33.1937 77.5114 31.5132 78.4087 30.068C78.8345 29.379 79.3397 28.7453 79.9123 28.1763C81.8008 26.2942 84.4085 25.1275 87.2906 25.1275C90.1702 25.1275 92.7756 26.2918 94.664 28.1715C96.4539 29.9552 97.599 32.3822 97.7169 35.0782C97.7241 35.2318 97.7265 35.3878 97.7265 35.5415C97.7265 35.6975 97.7241 35.8512 97.7169 36.0048V52.3604H104.138V35.5391C104.133 30.8914 102.242 26.6831 99.1891 23.6415Z" fill="#32293C"/>
<path d="M33.3742 32.3198H6.91148C7.1713 31.5228 7.52494 30.769 7.95796 30.0704C8.38377 29.3815 8.88897 28.7477 9.45912 28.1787C11.3476 26.2966 13.9554 25.1299 16.8374 25.1299C19.717 25.1299 22.3224 26.2942 24.2109 28.1739L28.7408 23.6463C25.6928 20.6119 21.4852 18.7346 16.8374 18.7346C12.9017 18.7346 9.2835 20.0814 6.41591 22.338C5.89628 22.7485 5.3983 23.1878 4.93159 23.6535C4.01262 24.5706 3.19709 25.5932 2.50906 26.7023C1.45536 28.3972 0.697566 30.2937 0.303032 32.3198C0.137038 33.1769 0.0335934 34.0603 0.00231934 34.9581V36.1321C0.0335934 37.0299 0.134633 37.9109 0.300626 38.7656H26.7657C26.5035 39.5698 26.145 40.3308 25.7072 41.0366C25.2814 41.7183 24.7786 42.3497 24.2133 42.9139C22.3248 44.796 19.7194 45.9579 16.8398 45.9579C13.9626 45.9579 11.3548 44.796 9.46874 42.9139L6.41831 45.9627L4.93881 47.4415C5.40552 47.9072 5.89868 48.3441 6.41831 48.7522C9.28591 51.0088 12.9065 52.3556 16.8398 52.3556C21.4876 52.3556 25.6952 50.4783 28.7432 47.4415C29.6598 46.5292 30.4705 45.509 31.1585 44.4071C32.217 42.705 32.982 40.8013 33.3766 38.7656C33.569 37.7789 33.6749 36.7586 33.6845 35.7167V35.3687C33.6725 34.3292 33.5666 33.3089 33.3742 32.3198ZM16.8398 35.5607L16.8013 35.5847L16.8302 35.5559L16.835 35.5511L16.8422 35.5583L16.859 35.5751L16.8398 35.5607Z" fill="#32293C"/>
<path d="M224.295 6.40011C226.066 6.40011 227.502 4.96739 227.502 3.20005C227.502 1.43271 226.066 0 224.295 0C222.524 0 221.088 1.43271 221.088 3.20005C221.088 4.96739 222.524 6.40011 224.295 6.40011Z" fill="#32293C"/>
<path d="M216.927 32.3198H190.464C190.724 31.5228 191.077 30.769 191.51 30.0704C191.936 29.3814 192.441 28.7476 193.011 28.1787C194.9 26.2966 197.508 25.1299 200.39 25.1299C203.269 25.1299 205.875 26.2942 207.763 28.1739L212.293 23.6463C209.245 20.6095 205.038 18.7322 200.39 18.7322C196.454 18.7322 192.836 20.0789 189.968 22.3355C189.449 22.746 188.951 23.1854 188.484 23.6511C187.565 24.5681 186.749 25.5908 186.061 26.6999C185.008 28.3948 184.25 30.2913 183.855 32.3174C183.689 33.1744 183.586 34.0579 183.555 34.9557V36.1296C183.586 37.0275 183.687 37.9085 183.853 38.7631H210.318C210.056 39.5673 209.697 40.3283 209.26 41.0341C208.834 41.7159 208.331 42.3473 207.766 42.9114C205.877 44.7935 203.272 45.9554 200.392 45.9554C197.515 45.9554 194.907 44.7935 193.021 42.9114L189.971 45.9602L188.491 47.439C188.958 47.9048 189.451 48.3417 189.971 48.7498C192.838 51.0064 196.459 52.3531 200.392 52.3531C205.04 52.3531 209.248 50.4758 212.296 47.439C213.212 46.5268 214.023 45.5065 214.711 44.4046C215.769 42.7026 216.534 40.7989 216.929 38.7631C217.121 37.7765 217.227 36.7562 217.237 35.7143V35.3662C217.225 34.3291 217.119 33.3089 216.927 32.3198ZM200.392 35.5607L200.354 35.5847L200.383 35.5559L200.387 35.5511L200.395 35.5583L200.411 35.5751L200.392 35.5607Z" fill="#32293C"/>
</g>
<defs>
<clipPath id="clip0">
<rect width="303" height="81" fill="white"/>
</clipPath>
</defs>
</svg>
