<svg xmlns="http://www.w3.org/2000/svg" viewBox="0 0 519.11 90.07"><defs><style>.cls-1,.cls-2{fill:#f6a920;}.cls-1,.cls-3,.cls-4{fill-rule:evenodd;}.cls-3{fill:#fbd08f;}.cls-4{fill:#fff;}</style></defs><title>Asset 1</title><g id="Layer_2" data-name="Layer 2"><g id="Réteg_1" data-name="Réteg 1"><path class="cls-1" d="M514.75,19.39h-.41v.94h.35c.4,0,.58-.14.58-.47s-.13-.47-.52-.47m1.36,2.41a1,1,0,0,1-.81-.31,3.53,3.53,0,0,1-.58-.79h-.38v1h-.53V19h1c.57,0,.95.26.95.85a.82.82,0,0,1-.5.76,3.94,3.94,0,0,0,.4.55,1.3,1.3,0,0,0,.51.26Zm-1.3-3.35a1.89,1.89,0,0,0-2.09,2,2,2,0,0,0,2.15,2.07,1.9,1.9,0,0,0,2-2A2,2,0,0,0,514.81,18.45Zm0,4.55a2.52,2.52,0,1,1,0-5,2.41,2.41,0,0,1,2.6,2.53A2.41,2.41,0,0,1,514.81,23Zm-8.3,15.91h-5.43V57.29h-7.44V38.91H488.2V33.56h18.31Zm-23,7.56H468.08v.25c0,4.21.66,5.64,4.11,5.64,2.32,0,4.09-.25,4.2-2.76h7.16c-.06,3.36-1.2,5.23-3.09,6.33s-4.82,1.37-8.27,1.37c-9.23,0-11.4-3.12-11.4-11.89,0-9,2-11.95,11.4-11.95,8.79,0,11.36,2.37,11.36,11.95Zm-28.8,19.67H404.63a16.09,16.09,0,0,1-10.78-4.44c-3.74-4-4.55-10.29-4.55-16.26s.81-12.28,4.55-16.28a16,16,0,0,1,10.78-4.45h50.12Zm61.16-37.53a17.85,17.85,0,0,0-15.32-8.31H403.4a17.86,17.86,0,0,0-15.33,8.31c-2.61,4.53-3.19,11.93-3.19,16.83s.58,12.27,3.19,16.8a17.85,17.85,0,0,0,15.33,8.32h97.19a17.83,17.83,0,0,0,15.32-8.32c2.61-4.53,3.2-11.93,3.2-16.8S518.52,33.14,515.91,28.61Zm-105.27,10c2.68,0,4.12.27,4.12,4v.18h-8C406.83,39.62,407.47,38.64,410.64,38.64ZM399.3,45.58c0,8.8,2.2,12,11.47,12,3.44,0,6.31-.27,8.31-1.37s3.08-3.05,3.12-6.47h-7.3c-.09,2.5-1.79,2.77-4.13,2.77-3.37,0-4-1.38-4-5.58v-.18H422.2V45.58c0-9.62-2.6-12-11.43-12C401.32,33.56,399.3,36.49,399.3,45.58Zm39.31,7.3c-2,0-3.94-.05-4-2.69h-7.45c.06,5.2,2.52,6.89,7.07,7.26,1.38.09,2.87.09,4.41.09,6.27,0,11.47-1,11.47-7.84,0-6.48-3.37-6.93-11.48-7.12-4-.09-4.25-.94-4.25-2.26,0-1.59.17-2.1,4.26-2.1,1.49,0,3,.14,3.33,2h7v-.95c0-5.64-5.92-5.71-10.35-5.71-6.66,0-11.48.14-11.48,7.62,0,4.69,1.62,6.89,11.48,6.89a9.12,9.12,0,0,1,3.13.31c.77.33,1.13,1,1.13,2.23C442.87,52.66,442.12,52.88,438.61,52.88Zm33.45-14.49c-3.28,0-3.9,1.06-4,4.28h8.19V42.4C476.26,38.67,474.76,38.39,472.06,38.39Z"/><rect class="cls-2" x="361.9" y="5.08" width="1.81" height="81.49"/><path class="cls-1" d="M274.66,5.06H246.59V15.38h8.13V59.79h11.81V15.38h8.13ZM226.81,46.5V18.35a4.53,4.53,0,0,1,.85-3,3.34,3.34,0,0,1,2.67-1,3.23,3.23,0,0,1,2.63,1,4.59,4.59,0,0,1,.81,3v8.21h10.87V20q0-8-3.74-11.95c-2.49-2.61-6.14-3.93-11-3.92S221.38,5.43,218.84,8,215,14.64,215,20V44.86q0,8,3.83,12c2.54,2.61,6.24,3.93,11.1,3.92s8.47-1.31,11-3.92,3.72-6.61,3.74-12V36.65H233.77V46.5a4.54,4.54,0,0,1-.81,3,3.2,3.2,0,0,1-2.63,1,3.31,3.31,0,0,1-2.67-1A4.48,4.48,0,0,1,226.81,46.5Zm-33.15-8c.37-2.51.76-5.42,1.17-8.71S195.64,22.9,196,19q.54,5.88,1.13,10.83c.4,3.29.78,6.2,1.13,8.71l.63,4.3H193Zm8.05,21.27H213.6L204.14,5.06H188.81l-9.38,54.73H190.3l1.17-7.19h9ZM182.32,5.06H154.26V15.38h8.13V59.79h11.8V15.38h8.13Zm-40.65,0V23.51c0,1.27,0,2.65.09,4.15s.12,3,.18,4.48.15,2.9.2,4.19c-.26-1.29-.55-2.65-.87-4.11s-.66-2.94-1-4.41-.7-2.88-1-4.22L134.16,5.06h-15.4V59.79h9.85v-23c0-1.27,0-2.66-.09-4.17s-.13-3-.21-4.51-.17-2.84-.24-4.06l.93,4c.34,1.47.69,2.95,1.05,4.45s.67,2.88,1,4.18l6.09,23.07h14.39V5.06ZM95.31,46.5V18.35a4.53,4.53,0,0,1,.84-3,3.36,3.36,0,0,1,2.67-1,3.26,3.26,0,0,1,2.64,1,4.59,4.59,0,0,1,.8,3V46.5a4.54,4.54,0,0,1-.8,3,3.23,3.23,0,0,1-2.64,1,3.33,3.33,0,0,1-2.67-1A4.48,4.48,0,0,1,95.31,46.5ZM83.5,44.86q0,8,3.94,12c2.6,2.61,6.41,3.93,11.38,3.92s8.76-1.31,11.35-3.92,3.89-6.61,3.9-12V20c0-5.35-1.32-9.33-3.9-11.95S103.8,4.11,98.82,4.12,90,5.43,87.44,8s-3.93,6.6-3.94,12ZM61.84,46.5V18.35a4.53,4.53,0,0,1,.85-3,3.34,3.34,0,0,1,2.67-1,3.23,3.23,0,0,1,2.63,1,4.53,4.53,0,0,1,.81,3v8.21H79.67V20q0-8-3.74-11.95c-2.49-2.61-6.14-3.93-11-3.92S56.41,5.43,53.87,8,50.05,14.64,50,20V44.86q0,8,3.83,12c2.54,2.61,6.24,3.93,11.1,3.92s8.47-1.31,11-3.92,3.73-6.61,3.74-12V36.65H68.8V46.5a4.49,4.49,0,0,1-.81,3,3.2,3.2,0,0,1-2.63,1,3.31,3.31,0,0,1-2.67-1A4.48,4.48,0,0,1,61.84,46.5ZM33.62,59.79H45.43V5.06H33.62ZM10.87,40.4H0v4.46q0,8,3.7,12c2.46,2.61,6.1,3.93,10.92,3.92a18.29,18.29,0,0,0,8.25-1.68,10.85,10.85,0,0,0,4.9-4.85,16.94,16.94,0,0,0,1.63-7.78V45.25a21.75,21.75,0,0,0-1-6.79,15.53,15.53,0,0,0-2.52-4.81,19,19,0,0,0-3.42-3.41q-1.87-1.44-3.75-2.61c-1.24-.78-2.39-1.58-3.43-2.39a10.45,10.45,0,0,1-2.52-2.73,6.94,6.94,0,0,1-1-3.69v-.47a4.79,4.79,0,0,1,.74-3,3.11,3.11,0,0,1,2.62-1,3,3,0,0,1,2.53,1,4.92,4.92,0,0,1,.75,3v4.77h11V20q0-8-3.74-11.95c-2.49-2.61-6.14-3.93-11-3.92A17.84,17.84,0,0,0,6.48,5.8,10.78,10.78,0,0,0,1.6,10.68,17.32,17.32,0,0,0,0,18.51v.31a21.46,21.46,0,0,0,1,6.79A15.4,15.4,0,0,0,3.49,30.4a19.74,19.74,0,0,0,3.43,3.41c1.25.95,2.5,1.82,3.75,2.59S13.06,38,14.1,38.78a10.16,10.16,0,0,1,2.51,2.75,7,7,0,0,1,1,3.72V46.5a4.73,4.73,0,0,1-.77,3,3.1,3.1,0,0,1-2.59,1,3.1,3.1,0,0,1-2.59-1,4.67,4.67,0,0,1-.77-3Zm319,46.17V76.86a3.12,3.12,0,0,1,.29-1.28,2.42,2.42,0,0,1,.78-.94,1.92,1.92,0,0,1,1.11-.37,2.09,2.09,0,0,1,.95.19,1.25,1.25,0,0,1,.57.69,4,4,0,0,1,.2,1.4v10h1.4v-10a5.82,5.82,0,0,0-.2-1.7,2.64,2.64,0,0,0-.56-1.07,2.1,2.1,0,0,0-.86-.56,3.57,3.57,0,0,0-1.06-.16,2.87,2.87,0,0,0-1.24.28,2.83,2.83,0,0,0-.92.72,3.13,3.13,0,0,0-.56,1V73.3h-1.33V86.57ZM324.52,83a3.21,3.21,0,0,1-.29,1.29,2.66,2.66,0,0,1-.78.94,2,2,0,0,1-1.11.36,2.24,2.24,0,0,1-.95-.17,1.18,1.18,0,0,1-.57-.66,3.66,3.66,0,0,1-.2-1.35v-.28a3.27,3.27,0,0,1,.28-1.37,2.7,2.7,0,0,1,.7-1,5,5,0,0,1,.95-.68c.34-.2.69-.39,1-.57a7,7,0,0,0,.94-.63Zm.3,3.54h1.36c-.05-.27-.09-.55-.12-.82s-.05-.56-.07-.88,0-.69,0-1.12,0-.93,0-1.51V76.73a5.07,5.07,0,0,0-.38-2.11,2.38,2.38,0,0,0-1.09-1.2,3.78,3.78,0,0,0-1.76-.38,3.71,3.71,0,0,0-1.75.38,2.44,2.44,0,0,0-1.1,1.2,5.08,5.08,0,0,0-.37,2.11v.77h1.33v-.92a2.78,2.78,0,0,1,.43-1.72,1.68,1.68,0,0,1,1.44-.59,1.93,1.93,0,0,1,1.06.26,1.5,1.5,0,0,1,.58.78,3.84,3.84,0,0,1,.18,1.27v.15a1.58,1.58,0,0,1-.3.92,2.86,2.86,0,0,1-.75.66c-.32.19-.67.39-1,.57s-.75.4-1.13.63a5.89,5.89,0,0,0-1,.84,3.82,3.82,0,0,0-.75,1.2,4.56,4.56,0,0,0-.29,1.71v.23a5.55,5.55,0,0,0,.2,1.65,2.49,2.49,0,0,0,.56,1,2.23,2.23,0,0,0,.86.52,3.58,3.58,0,0,0,1.06.14,2.79,2.79,0,0,0,1.21-.26,2.92,2.92,0,0,0,.92-.7,2.75,2.75,0,0,0,.56-1c0,.31,0,.61.08.9A7.43,7.43,0,0,0,324.82,86.57ZM310.56,68.64V86.57h1l.39-1.67a3.11,3.11,0,0,0,.57,1,2.82,2.82,0,0,0,.91.68,2.79,2.79,0,0,0,1.21.26,3,3,0,0,0,1.06-.16,2.08,2.08,0,0,0,.86-.55,2.64,2.64,0,0,0,.56-1.07,5.87,5.87,0,0,0,.2-1.7V76.53a5.82,5.82,0,0,0-.2-1.7,2.64,2.64,0,0,0-.56-1.07,2.1,2.1,0,0,0-.86-.56,3.57,3.57,0,0,0-1.06-.16,3,3,0,0,0-1.15.24,2.79,2.79,0,0,0-.89.62,3.11,3.11,0,0,0-.58.89V68.64ZM312,76.86a3.12,3.12,0,0,1,.29-1.28,2.42,2.42,0,0,1,.78-.94,1.92,1.92,0,0,1,1.11-.37,2.09,2.09,0,0,1,.95.19,1.25,1.25,0,0,1,.57.69,4,4,0,0,1,.2,1.4v6.76a4,4,0,0,1-.2,1.4,1.18,1.18,0,0,1-.57.69,1.86,1.86,0,0,1-.95.19,1.91,1.91,0,0,1-1.11-.36,2.5,2.5,0,0,1-.78-.94A3.2,3.2,0,0,1,312,83ZM304.31,89a3.07,3.07,0,0,1-1.18-.18,1.07,1.07,0,0,1-.58-.52,2,2,0,0,1-.16-.86,2.09,2.09,0,0,1,.12-.69,1.17,1.17,0,0,1,.43-.56,1.6,1.6,0,0,1,.89-.24h2a3,3,0,0,1,.95.12,1,1,0,0,1,.59.45,1.88,1.88,0,0,1,.2.94,1.61,1.61,0,0,1-.23.91,1.22,1.22,0,0,1-.64.49,3,3,0,0,1-1,.14Zm2.13-12.5v2.66A2.74,2.74,0,0,1,306,80.9a2.17,2.17,0,0,1-3,0,2.87,2.87,0,0,1-.45-1.74V76.5a2.83,2.83,0,0,1,.45-1.73,2.18,2.18,0,0,1,3,0A2.7,2.7,0,0,1,306.44,76.5Zm-5.23,11.14a2.67,2.67,0,0,0,.28,1.27,1.94,1.94,0,0,0,.92.84,4.21,4.21,0,0,0,1.7.3h1.66a4.47,4.47,0,0,0,1.68-.29,2.25,2.25,0,0,0,1.09-.9,2.89,2.89,0,0,0,.38-1.55,3.24,3.24,0,0,0-.34-1.61,2.05,2.05,0,0,0-1-.87,4.36,4.36,0,0,0-1.68-.26h-2.1a1.1,1.1,0,0,1-.58-.16.84.84,0,0,1-.33-.37,1.08,1.08,0,0,1-.11-.5,1.26,1.26,0,0,1,.08-.43,1,1,0,0,1,.22-.36.75.75,0,0,1,.37-.23,3.49,3.49,0,0,0,.5.08l.57,0a4,4,0,0,0,1.81-.35,2.44,2.44,0,0,0,1.15-1.14,4.77,4.77,0,0,0,.4-2.09V75.43a1.6,1.6,0,0,1,.11-.69.45.45,0,0,1,.4-.24l.27,0,.29.06V73.35l-.23,0h-.33a1,1,0,0,0-.78.33,1.48,1.48,0,0,0-.3.8,2.44,2.44,0,0,0-1.12-1.06,4.09,4.09,0,0,0-1.72-.33,4.2,4.2,0,0,0-1.79.35,2.43,2.43,0,0,0-1.13,1.15,4.91,4.91,0,0,0-.38,2.09V79a4.91,4.91,0,0,0,.35,2,2.52,2.52,0,0,0,1,1.15,1.76,1.76,0,0,0-.86,1,2.21,2.21,0,0,0-.14.81,2.18,2.18,0,0,0,.19,1,1.68,1.68,0,0,0,.58.69,1.69,1.69,0,0,0-.8.76A2.67,2.67,0,0,0,301.21,87.64Zm-6.5-15.72h.92l2.31-3h-1.57ZM297.58,83a3.21,3.21,0,0,1-.29,1.29,2.66,2.66,0,0,1-.78.94,2,2,0,0,1-1.11.36,2.24,2.24,0,0,1-.95-.17,1.18,1.18,0,0,1-.57-.66,3.66,3.66,0,0,1-.2-1.35v-.28a3.27,3.27,0,0,1,.28-1.37,2.7,2.7,0,0,1,.7-1,5,5,0,0,1,.95-.68c.34-.2.69-.39,1-.57a6.42,6.42,0,0,0,.94-.63Zm.3,3.54h1.36c-.05-.27-.09-.55-.12-.82s-.05-.56-.07-.88,0-.69,0-1.12,0-.93,0-1.51V76.73a5.25,5.25,0,0,0-.37-2.11,2.44,2.44,0,0,0-1.1-1.2,3.75,3.75,0,0,0-1.76-.38,3.71,3.71,0,0,0-1.75.38,2.44,2.44,0,0,0-1.1,1.2,5.25,5.25,0,0,0-.37,2.11v.77h1.33v-.92a2.78,2.78,0,0,1,.43-1.72,1.68,1.68,0,0,1,1.44-.59,1.93,1.93,0,0,1,1.06.26,1.5,1.5,0,0,1,.58.78,3.84,3.84,0,0,1,.18,1.27v.15a1.58,1.58,0,0,1-.3.92,2.86,2.86,0,0,1-.75.66c-.32.19-.66.39-1,.57s-.75.4-1.13.63a5.49,5.49,0,0,0-1,.84,3.67,3.67,0,0,0-.76,1.2,4.56,4.56,0,0,0-.29,1.71v.23a5.55,5.55,0,0,0,.2,1.65,2.49,2.49,0,0,0,.56,1,2.23,2.23,0,0,0,.86.52,3.6,3.6,0,0,0,1.07.14,2.78,2.78,0,0,0,1.2-.26,2.81,2.81,0,0,0,.92-.7,2.75,2.75,0,0,0,.56-1c0,.31,0,.61.08.9A7.43,7.43,0,0,0,297.88,86.57Zm-7.81,0V68.64h-1.43V86.57ZM286,70.84v-2.2h-1.44v2.2Zm0,15.73V73.3h-1.44V86.57Zm-6.12-5.23c-.16.7-.29,1.38-.41,2s-.22,1.3-.31,1.87c-.06-.57-.16-1.19-.28-1.87s-.26-1.35-.41-2l-1.82-8H275.2l3,13.27H280l3-13.27h-1.31Zm-11.73,2.13a3.36,3.36,0,0,1-.17,1.17,1.36,1.36,0,0,1-.57.75,2.07,2.07,0,0,1-1.11.25,2,2,0,0,1-1.11-.27,1.52,1.52,0,0,1-.58-.79,3.92,3.92,0,0,1-.18-1.27v-1.1h-1.33v1a5.18,5.18,0,0,0,.37,2.09,2.4,2.4,0,0,0,1.09,1.17,3.68,3.68,0,0,0,1.77.37,4,4,0,0,0,1.78-.35,2.46,2.46,0,0,0,1.1-1.13,4.66,4.66,0,0,0,.37-2v0a4.19,4.19,0,0,0-.28-1.59,3.53,3.53,0,0,0-.72-1.13,5.92,5.92,0,0,0-1-.82c-.36-.23-.72-.46-1.08-.67a7.28,7.28,0,0,1-1-.66,3,3,0,0,1-.73-.83,2.34,2.34,0,0,1-.27-1.14v-.1a3.23,3.23,0,0,1,.17-1.18,1.41,1.41,0,0,1,.59-.74,2.07,2.07,0,0,1,1.11-.26,2,2,0,0,1,1.11.28,1.5,1.5,0,0,1,.59.79,4.22,4.22,0,0,1,.17,1.26v.87h1.33v-.74a4.94,4.94,0,0,0-.38-2.09,2.44,2.44,0,0,0-1.1-1.18,3.8,3.8,0,0,0-1.77-.37,3.22,3.22,0,0,0-2.39.82,3.48,3.48,0,0,0-.84,2.59v0a4.24,4.24,0,0,0,.28,1.6,3.69,3.69,0,0,0,.71,1.13,6.23,6.23,0,0,0,1,.8c.36.23.72.45,1.07.65a9.29,9.29,0,0,1,1,.66,2.77,2.77,0,0,1,.72.81,2.33,2.33,0,0,1,.28,1.13Zm-7.27-12.63v-2.2h-1.44v2.2Zm0,15.73V73.3h-1.44V86.57Zm-4.1,0V68.64h-1.44V86.57Zm-8.25-14.65h.92l2.31-3h-1.56ZM251.38,83a2.91,2.91,0,0,1-.29,1.29,2.56,2.56,0,0,1-.78.94,1.93,1.93,0,0,1-1.11.36,2.2,2.2,0,0,1-.94-.17,1.16,1.16,0,0,1-.58-.66,3.69,3.69,0,0,1-.19-1.35v-.28a3.13,3.13,0,0,1,.27-1.37,2.83,2.83,0,0,1,.7-1,5.31,5.31,0,0,1,.95-.68c.35-.2.69-.39,1-.57a6.31,6.31,0,0,0,.93-.63Zm.31,3.54H253c0-.27-.08-.55-.12-.82s0-.56-.07-.88,0-.69,0-1.12,0-.93,0-1.51V76.73a5.08,5.08,0,0,0-.37-2.11,2.47,2.47,0,0,0-1.09-1.2,4.27,4.27,0,0,0-3.52,0,2.38,2.38,0,0,0-1.09,1.2,5.07,5.07,0,0,0-.38,2.11v.77h1.33v-.92a2.78,2.78,0,0,1,.43-1.72,1.68,1.68,0,0,1,1.44-.59,2,2,0,0,1,1.07.26,1.55,1.55,0,0,1,.58.78,3.86,3.86,0,0,1,.17,1.27v.15a1.51,1.51,0,0,1-.29.92,2.76,2.76,0,0,1-.76.66c-.32.19-.66.39-1,.57s-.75.4-1.12.63a5.55,5.55,0,0,0-1,.84,4,4,0,0,0-.76,1.2,4.56,4.56,0,0,0-.29,1.71v.23a5.9,5.9,0,0,0,.2,1.65,2.5,2.5,0,0,0,.57,1,2.13,2.13,0,0,0,.85.52,3.65,3.65,0,0,0,1.07.14,2.82,2.82,0,0,0,1.21-.26,2.87,2.87,0,0,0,1.48-1.68c0,.31,0,.61.07.9A5.51,5.51,0,0,0,251.69,86.57Zm-8.09.15a4.87,4.87,0,0,0,.66,0,3.1,3.1,0,0,0,.59-.11V85.39a2.24,2.24,0,0,1-.42.08l-.6,0a1,1,0,0,1-.81-.28,1.48,1.48,0,0,1-.24-1v-9.7h2.07V73.3h-2.07V70.46h-1.44V73.3h-1.15v1.23h1.15v9.81a3.4,3.4,0,0,0,.24,1.39,1.52,1.52,0,0,0,.74.76A3,3,0,0,0,243.6,86.72Zm-5.3-15.88v-2.2h-1.44v2.2Zm0,15.73V73.3h-1.44V86.57ZM230.61,89a3.07,3.07,0,0,1-1.18-.18,1.07,1.07,0,0,1-.58-.52,2,2,0,0,1-.16-.86,2.09,2.09,0,0,1,.12-.69,1.17,1.17,0,0,1,.43-.56,1.6,1.6,0,0,1,.89-.24h2a3,3,0,0,1,1,.12,1,1,0,0,1,.59.45,1.88,1.88,0,0,1,.2.94,1.61,1.61,0,0,1-.23.91,1.22,1.22,0,0,1-.64.49,3,3,0,0,1-1,.14Zm2.13-12.5v2.66a2.74,2.74,0,0,1-.45,1.74,2.17,2.17,0,0,1-3,0,2.8,2.8,0,0,1-.44-1.74V76.5a2.77,2.77,0,0,1,.44-1.73,2.18,2.18,0,0,1,3,0A2.7,2.7,0,0,1,232.74,76.5Zm-5.23,11.14a2.67,2.67,0,0,0,.28,1.27,1.94,1.94,0,0,0,.92.84,4.21,4.21,0,0,0,1.7.3h1.66a4.43,4.43,0,0,0,1.68-.29,2.21,2.21,0,0,0,1.09-.9,2.89,2.89,0,0,0,.38-1.55,3.24,3.24,0,0,0-.34-1.61,2,2,0,0,0-1-.87,4.36,4.36,0,0,0-1.68-.26h-2.1a1.13,1.13,0,0,1-.58-.16.84.84,0,0,1-.33-.37,1.08,1.08,0,0,1-.11-.5,1.26,1.26,0,0,1,.08-.43,1,1,0,0,1,.22-.36.75.75,0,0,1,.37-.23,3.49,3.49,0,0,0,.5.08l.57,0a4.05,4.05,0,0,0,1.82-.35,2.42,2.42,0,0,0,1.14-1.14,4.77,4.77,0,0,0,.4-2.09V75.43a1.58,1.58,0,0,1,.12-.69.42.42,0,0,1,.39-.24l.27,0,.29.06V73.35l-.23,0h-.33a1,1,0,0,0-.78.33,1.56,1.56,0,0,0-.3.8,2.44,2.44,0,0,0-1.12-1.06,4.09,4.09,0,0,0-1.72-.33,4.2,4.2,0,0,0-1.79.35,2.41,2.41,0,0,0-1.12,1.15,4.75,4.75,0,0,0-.39,2.09V79a4.91,4.91,0,0,0,.35,2,2.52,2.52,0,0,0,1,1.15,1.76,1.76,0,0,0-.86,1,2.44,2.44,0,0,0-.14.81,2.33,2.33,0,0,0,.19,1,1.68,1.68,0,0,0,.58.69,1.73,1.73,0,0,0-.8.76A2.67,2.67,0,0,0,227.51,87.64Zm-2.35-16.8v-2.2h-1.44v2.2Zm0,15.73V73.3h-1.44V86.57Zm-5.23,0h1.39a8.27,8.27,0,0,1-.14-.82c0-.26-.06-.56-.08-.88s0-.69,0-1.12,0-.93,0-1.51V68.64h-1.41v6.17a3,3,0,0,0-.59-.9,2.82,2.82,0,0,0-.9-.63A3,3,0,0,0,217,73a3.57,3.57,0,0,0-1.06.16,2.1,2.1,0,0,0-.86.56,2.64,2.64,0,0,0-.56,1.07,5.79,5.79,0,0,0-.21,1.7v6.81a5.88,5.88,0,0,0,.21,1.7,2.64,2.64,0,0,0,.56,1.07,2.08,2.08,0,0,0,.86.55,3,3,0,0,0,1.06.16,2.91,2.91,0,0,0,1.19-.25,3.07,3.07,0,0,0,.92-.67,2.89,2.89,0,0,0,.57-1c0,.31,0,.6.08.88A6.39,6.39,0,0,0,219.93,86.57ZM219.65,83a2.9,2.9,0,0,1-.29,1.28,2.47,2.47,0,0,1-.77.94,2.13,2.13,0,0,1-2.07.17,1.16,1.16,0,0,1-.58-.69,3.71,3.71,0,0,1-.21-1.4V76.55a3.75,3.75,0,0,1,.21-1.4,1.23,1.23,0,0,1,.58-.69,2.13,2.13,0,0,1,1-.19,1.92,1.92,0,0,1,1.11.37,2.4,2.4,0,0,1,.77.94,2.83,2.83,0,0,1,.29,1.28Zm-13.47,0a2.91,2.91,0,0,1-.29,1.29,2.64,2.64,0,0,1-.77.94,2,2,0,0,1-1.11.36,2.24,2.24,0,0,1-.95-.17,1.18,1.18,0,0,1-.57-.66,3.46,3.46,0,0,1-.2-1.35v-.28a3.28,3.28,0,0,1,.27-1.37,2.83,2.83,0,0,1,.7-1,5,5,0,0,1,1-.68c.34-.2.69-.39,1-.57a6.31,6.31,0,0,0,.93-.63Zm.31,3.54h1.36c0-.27-.09-.55-.13-.82s-.05-.56-.06-.88,0-.69,0-1.12,0-.93,0-1.51V76.73a5.07,5.07,0,0,0-.38-2.11,2.42,2.42,0,0,0-1.09-1.2,4.27,4.27,0,0,0-3.52,0,2.42,2.42,0,0,0-1.09,1.2,5.07,5.07,0,0,0-.38,2.11v.77h1.34v-.92a2.79,2.79,0,0,1,.42-1.72,1.69,1.69,0,0,1,1.45-.59,2,2,0,0,1,1.06.26,1.5,1.5,0,0,1,.58.78,3.62,3.62,0,0,1,.17,1.27v.15a1.51,1.51,0,0,1-.29.92,2.76,2.76,0,0,1-.76.66c-.31.19-.66.39-1,.57s-.76.4-1.13.63a5.55,5.55,0,0,0-1,.84,3.82,3.82,0,0,0-.75,1.2,4.55,4.55,0,0,0-.3,1.71v.23a5.86,5.86,0,0,0,.21,1.65,2.49,2.49,0,0,0,.56,1,2.2,2.2,0,0,0,.85.52,3.69,3.69,0,0,0,1.07.14,2.82,2.82,0,0,0,1.21-.26,2.87,2.87,0,0,0,1.48-1.68,8.6,8.6,0,0,0,.08.9A7.43,7.43,0,0,0,206.49,86.57Zm-17.05,2a2.87,2.87,0,0,1-1-.13.81.81,0,0,1-.49-.38,1.35,1.35,0,0,1-.13-.64,1.5,1.5,0,0,1,.1-.52,1,1,0,0,1,.36-.41,1.21,1.21,0,0,1,.67-.17H191a2.14,2.14,0,0,1,.71.08.76.76,0,0,1,.44.34,1.29,1.29,0,0,1,.15.68,1,1,0,0,1-.4.91,2.34,2.34,0,0,1-1.26.24Zm1.66-12v2.26a2,2,0,0,1-.32,1.22,1.33,1.33,0,0,1-1.09.42,1.35,1.35,0,0,1-1.08-.42,2,2,0,0,1-.33-1.22V76.55a2,2,0,0,1,.33-1.23,1.29,1.29,0,0,1,1.08-.43,1.28,1.28,0,0,1,1.09.43A2,2,0,0,1,191.1,76.55Zm-5.33,11.14A2.43,2.43,0,0,0,186.1,89a1.92,1.92,0,0,0,1,.8,5.26,5.26,0,0,0,1.84.27h2a4.52,4.52,0,0,0,2.95-.79,2.88,2.88,0,0,0,.94-2.36,3,3,0,0,0-.81-2.31,3.67,3.67,0,0,0-2.6-.78h-2.43a.93.93,0,0,1-.47-.12.72.72,0,0,1-.27-.28,1,1,0,0,1-.08-.37.92.92,0,0,1,.1-.44.63.63,0,0,1,.29-.31l.52,0,.55,0a6.19,6.19,0,0,0,2.2-.35,2.6,2.6,0,0,0,1.35-1.2,4.78,4.78,0,0,0,.47-2.3V76.17a1,1,0,0,1,.12-.53.42.42,0,0,1,.37-.19,3.25,3.25,0,0,1,.69.08V73.38a1.32,1.32,0,0,0-.32-.07h-.37a1.18,1.18,0,0,0-.82.27,1.48,1.48,0,0,0-.41.81,2.59,2.59,0,0,0-1.33-1.06,7,7,0,0,0-4.17,0,2.56,2.56,0,0,0-1.32,1.19,4.86,4.86,0,0,0-.45,2.28v1.69a5,5,0,0,0,.39,2.17,2.59,2.59,0,0,0,1.17,1.21,2,2,0,0,0-.82.79,2.55,2.55,0,0,0-.33,1.34,2.93,2.93,0,0,0,.16,1,1.89,1.89,0,0,0,.55.76,1.94,1.94,0,0,0-.77.73A2.42,2.42,0,0,0,185.77,87.69Zm-7-15.67h1.77L183,68.77h-2.56Zm2.74,10.81a2.11,2.11,0,0,1-.2.92,1.58,1.58,0,0,1-.54.65,1.44,1.44,0,0,1-.82.24,1.39,1.39,0,0,1-.7-.13.9.9,0,0,1-.43-.47,2.31,2.31,0,0,1-.15-.93v-.18a2.18,2.18,0,0,1,.93-1.88,5.86,5.86,0,0,1,.92-.54l1-.47Zm.41,3.74h2.49c-.06-.3-.11-.59-.15-.88s-.06-.58-.08-.9,0-.69,0-1.11,0-.89,0-1.44v-5a4.56,4.56,0,0,0-1-3.19,4.64,4.64,0,0,0-5.78,0,4.47,4.47,0,0,0-1,3.19v.64h2.43v-1a2,2,0,0,1,.31-1.24,1.26,1.26,0,0,1,1-.43,1.2,1.2,0,0,1,1,.43,2,2,0,0,1,.31,1.24V77a1.11,1.11,0,0,1-.3.79,2.6,2.6,0,0,1-.77.56c-.32.16-.68.32-1.07.49a11.14,11.14,0,0,0-1.15.57,4.55,4.55,0,0,0-1.06.8,3.55,3.55,0,0,0-.77,1.19,4.72,4.72,0,0,0-.31,1.75v.2a5.06,5.06,0,0,0,.37,2.08,2.2,2.2,0,0,0,1,1.07,3.28,3.28,0,0,0,1.47.31,3.11,3.11,0,0,0,1.21-.25,2.69,2.69,0,0,0,.91-.68,2.77,2.77,0,0,0,.56-1q0,.49.12.9A3.73,3.73,0,0,0,181.88,86.57Zm-9.73-3.38a1.76,1.76,0,0,1-.31,1.17,1.24,1.24,0,0,1-1.07.41,1.2,1.2,0,0,1-1.06-.45,2.11,2.11,0,0,1-.3-1.24v-.92H167v.67a4.15,4.15,0,0,0,1,3,3.86,3.86,0,0,0,2.86,1,4.67,4.67,0,0,0,2.08-.42,2.9,2.9,0,0,0,1.33-1.26,4.64,4.64,0,0,0,.46-2.14V83a4.73,4.73,0,0,0-.29-1.71,3.38,3.38,0,0,0-.73-1.16,4.61,4.61,0,0,0-1-.76,9.18,9.18,0,0,0-1.09-.54c-.37-.16-.7-.32-1-.49a2.26,2.26,0,0,1-.73-.58,1.37,1.37,0,0,1-.29-.88v-.15a1.82,1.82,0,0,1,.32-1.18,1.27,1.27,0,0,1,1.06-.41,1.23,1.23,0,0,1,1.06.46,2.07,2.07,0,0,1,.3,1.23v.77h2.41V77a4.17,4.17,0,0,0-1-3.05,3.84,3.84,0,0,0-2.84-1,4.88,4.88,0,0,0-2.1.41,3,3,0,0,0-1.34,1.26,4.59,4.59,0,0,0-.46,2.12v0a5,5,0,0,0,.29,1.73,3.29,3.29,0,0,0,.73,1.16,4.32,4.32,0,0,0,1,.76c.36.2.73.37,1.09.53a10.71,10.71,0,0,1,1,.47,2.16,2.16,0,0,1,.73.58,1.28,1.28,0,0,1,.29.86ZM160,86.57V77.06a2.26,2.26,0,0,1,.2-.92,1.64,1.64,0,0,1,.54-.65,1.35,1.35,0,0,1,.8-.24,1.43,1.43,0,0,1,.71.14.94.94,0,0,1,.42.51,2.64,2.64,0,0,1,.15,1v9.68h2.61V76.71A5.51,5.51,0,0,0,165,74.5a2.27,2.27,0,0,0-1-1.15,3.23,3.23,0,0,0-2.74,0,2.7,2.7,0,0,0-.93.74,3.22,3.22,0,0,0-.56,1V73.3h-2.43V86.57Zm-7.07-9.68V83a1.9,1.9,0,0,1-.33,1.23,1.34,1.34,0,0,1-1.07.41,1.38,1.38,0,0,1-1.11-.41,2,2,0,0,1-.33-1.23V76.89a2,2,0,0,1,.33-1.23,1.38,1.38,0,0,1,1.11-.41,1.34,1.34,0,0,1,1.07.41A1.9,1.9,0,0,1,152.89,76.89Zm2.59,5.73V77.24a4.33,4.33,0,0,0-1-3.19,3.93,3.93,0,0,0-2.95-1,4,4,0,0,0-3,1,4.37,4.37,0,0,0-1,3.19v5.38a4.41,4.41,0,0,0,1,3.2,4,4,0,0,0,3,1,4,4,0,0,0,2.95-1A4.37,4.37,0,0,0,155.48,82.62Zm-10.76,4.1a8.7,8.7,0,0,0,.89,0,6.34,6.34,0,0,0,.81-.11V84.36a2.13,2.13,0,0,1-.44.07h-.56a.86.86,0,0,1-.68-.23,1.09,1.09,0,0,1-.22-.77V75.53h1.9V73.3h-1.9V70.46h-2.59V73.3h-1.12v2.23h1.12V83.8a4.26,4.26,0,0,0,.29,1.7,1.78,1.78,0,0,0,.9.93A3.72,3.72,0,0,0,144.72,86.72Zm-11.8-11.19h4.28l-4.56,9.09v1.95H140V84.34h-4.56L140,75.25v-2h-7.12Zm-1.74-4.23V68.64h-2.61V71.3Zm0,15.27V73.3h-2.61V86.57ZM118.66,68.64V86.57h2l.46-1.72a3,3,0,0,0,.56,1,2.74,2.74,0,0,0,.93.71,3.24,3.24,0,0,0,2.72-.06,2.35,2.35,0,0,0,1-1.15,5.73,5.73,0,0,0,.37-2.21V76.71a5.69,5.69,0,0,0-.37-2.21,2.31,2.31,0,0,0-1-1.15,2.9,2.9,0,0,0-1.47-.33,2.82,2.82,0,0,0-1.11.21,2.85,2.85,0,0,0-.87.57,3,3,0,0,0-.6.83v-6Zm2.61,8.42a2.11,2.11,0,0,1,.2-.92,1.64,1.64,0,0,1,.54-.65,1.34,1.34,0,0,1,.79-.24,1.39,1.39,0,0,1,.71.14.92.92,0,0,1,.43.51,2.64,2.64,0,0,1,.15,1V83a2.62,2.62,0,0,1-.15,1,.92.92,0,0,1-.43.51,1.56,1.56,0,0,1-1.5-.09,1.64,1.64,0,0,1-.54-.65,2.15,2.15,0,0,1-.2-.93ZM339.46,8.29c0-.14,0-.28,0-.43s0-.29-.07-.43,0-.27-.07-.4l-.39-1.95h-1.09V9.8h.65V7.55c0-.17,0-.34,0-.5s0-.32,0-.48l0-.5c0,.17.05.33.08.49s0,.32.08.48a4.8,4.8,0,0,0,.09.5l.46,2.26h.61l.47-2.26c0-.17.06-.34.08-.5s.06-.32.08-.48.05-.32.08-.49l0,.5c0,.16,0,.32,0,.48s0,.33,0,.5V9.8h.76V5.08h-1.08l-.4,2c0,.13,0,.26-.07.4s-.05.29-.07.43S339.47,8.15,339.46,8.29Zm-2-3.21h-2.21v.67H336V9.8h.77V5.75h.72Zm-56.93,0h43.78A11,11,0,0,1,335.29,16V48.85a11,11,0,0,1-10.94,10.94H280.57Z"/><path class="cls-3" d="M306.39,9.3a42.23,42.23,0,0,0-13.52,2.29,3,3,0,0,0-1.82,3.73,29.12,29.12,0,0,1,1.61,8.93,19.07,19.07,0,0,1-2.82,10,3,3,0,0,0-.23,2.53c2.89,7.84,7.26,15.56,17.29,18.38a2.54,2.54,0,0,0,1.59,0c10-2.82,14.41-10.54,17.31-18.38a3,3,0,0,0-.22-2.53,19,19,0,0,1-2.83-10,29.2,29.2,0,0,1,1.6-8.93,2.94,2.94,0,0,0-1.83-3.69,41.32,41.32,0,0,0-13.19-2.3c0-3,.38-7.19,6.95-7.19,3.65,0,5.54,1.21,6.52,3h1.8C323.43,2.5,321.67,0,316.28,0c-8.68,0-9.75,6.48-9.89,9.3"/><path class="cls-4" d="M307.31,29.69a.69.69,0,0,0,.45,0,.55.55,0,0,0,.25,0,77.15,77.15,0,0,0,7.93-2.23,1.47,1.47,0,1,0-1-2.78,59,59,0,0,1-6,1.7V16.19a1.49,1.49,0,0,0-1.48-1.48,1.46,1.46,0,0,0-1.48,1.48V26.34a55,55,0,0,1-6-1.7,1.47,1.47,0,0,0-1.87.91,1.45,1.45,0,0,0,.91,1.87,73.44,73.44,0,0,0,7.95,2.23.4.4,0,0,0,.23,0m.39-17.44a39.72,39.72,0,0,1,13.84,2.14c-2.28,7-2.87,14.08,1.48,21.38-2.78,7.57-6.7,14.13-15.32,16.56-8.62-2.43-12.54-9-15.31-16.56,4.34-7.3,3.75-14.41,1.46-21.38A39.84,39.84,0,0,1,307.7,12.25Z"/></g></g></svg>