<?xml version="1.0" encoding="utf-8"?>
<!-- Generator: Adobe Illustrator 23.1.0, SVG Export Plug-In . SVG Version: 6.00 Build 0)  -->
<svg version="1.1" id="Réteg_2" xmlns="http://www.w3.org/2000/svg" xmlns:xlink="http://www.w3.org/1999/xlink" x="0px" y="0px"
	 viewBox="0 0 1000 1000" style="enable-background:new 0 0 1000 1000;" xml:space="preserve">
<style type="text/css">
	.st0{fill:#32293C;}
</style>
<g>
	<path class="st0" d="M494.42,281.36c12.66-19.38,24.94-37.26,36.25-52.75c-11.68-1.51-23.56-2.37-35.65-2.37
		c-152.18,0-275.55,123.37-275.55,275.55c0,95.15,48.23,179.03,121.56,228.54c6.29-18.93,12.82-36.99,19.39-54.01
		c-52.2-40.31-85.85-103.47-85.85-174.53C274.58,380.25,372.95,281.69,494.42,281.36z"/>
	<path class="st0" d="M495.02,722.23c-13.07,0-25.85-1.2-38.3-3.38c-13.07,20.03-23.76,37.14-31.39,49.59
		c22.26,5.8,45.61,8.91,69.69,8.91c152.18,0,275.55-123.37,275.55-275.55c0-74.5-29.62-142.04-77.65-191.64
		c-13.82,13.46-26.72,26.57-38.76,39.19c37.94,39.6,61.3,93.28,61.3,152.45C715.47,623.54,616.77,722.23,495.02,722.23z"/>
	<path class="st0" d="M616.97,490.06c0,0-24.62-16.42-75.04-31.66c0,0,92.63-126.64,234.51-241.55c0,0-127.05-29.31-192.3-29.31
		c-34,25.8-143.05,194.65-193.47,307.21c0,0,42.21,19.93,55.11,32.83c0,0-59.8,100.84-100.84,236.86l-36.35-25.8l24.62,125.46
		l113.15-69.18l-46.32-11.73C400.05,783.2,504.99,602.04,616.97,490.06z"/>
	<path class="st0" d="M381.46,919.92c-5.83,2.9-9.53,7.78-11.11,14.64c-1.08,4.7-0.4,9.05,2.04,13.05
		c2.44,4.01,6.25,6.95,11.42,8.83l-0.05,0.21c-4.52,0.21-8.49,1.52-11.92,3.92c-3.43,2.4-5.61,5.63-6.53,9.67
		c-1.28,5.57-0.02,10.4,3.77,14.5s9.87,7.1,18.22,9.01l27.27,6.25l17.17-74.91l-28.78-6.6
		C394.45,916.55,387.29,917.03,381.46,919.92z M400.54,983.7l-6.32-1.44c-8.22-1.89-11.7-5.58-10.44-11.08
		c0.68-2.96,2.21-5.06,4.6-6.29c2.39-1.23,5.32-1.44,8.8-0.65l7.42,1.7L400.54,983.7z M407.48,953.4l-9.24-2.12
		c-3.9-0.89-6.74-2.44-8.53-4.64c-1.79-2.21-2.34-4.81-1.65-7.8c0.72-3.13,2.39-5.35,5.02-6.65c2.62-1.31,5.89-1.51,9.79-0.62
		l9.14,2.1L407.48,953.4z"/>
	<path class="st0" d="M351.74,903.83l-17.63,38.67c-2.37,5.2-4.91,11.34-7.63,18.43l-0.44-0.21c1.38-5.69,2.13-9.28,2.25-10.75
		l4.77-54.65l-12.88-5.87l-38.06,40.08c-1.51,1.59-3.65,4.34-6.42,8.27l-0.39-0.18c2.88-5.28,5.35-10.19,7.41-14.7l19.07-41.84
		l-15.55-7.09l-31.88,69.93l22.48,10.24L310,919.31c2.28-2.42,4.74-5.36,7.38-8.83l0.3,0.13c-1.01,3.59-1.7,7.3-2.07,11.13
		l-4.61,47.96l23.06,10.51l31.88-69.93L351.74,903.83z"/>
	<polygon class="st0" points="237.27,838.39 229.18,849.86 252.69,866.45 242.56,880.81 222.02,866.32 213.93,877.79 234.47,892.28 
		224.61,906.25 202.54,890.68 194.42,902.2 230.63,927.74 274.93,864.95 	"/>
	<path class="st0" d="M100.68,807.52l11.86,13.69l50.68-22.84c2.72-1.23,5.07-2.53,7.04-3.9l0.21,0.24
		c-1.56,1.59-3.15,3.65-4.77,6.19l-29.93,47.13l12.21,14.09l40.96-70.08l-12.84-14.83L100.68,807.52z"/>
	<polygon class="st0" points="103.45,786.38 144.97,758.44 148.56,763.78 159.68,756.3 142.84,731.27 131.72,738.74 135.31,744.08 
		93.79,772.02 90.19,766.69 79.08,774.17 95.92,799.2 107.04,791.72 	"/>
	<polygon class="st0" points="116.63,683.49 104.24,690.1 117.62,715.21 62.19,744.76 70.34,760.03 138.15,723.88 	"/>
	<path class="st0" d="M97.73,633.73l-0.76,0.29l-3.73-17.46l-17.85-1.72l-5.71-26.73l15.58-8.91l-3.94-18.45l-69.44,42.78
		l4.29,20.07l79.15,11.04l-10.72,4.06l10.09,26.61l-58.73,22.27l6.14,16.19l71.85-27.26L97.73,633.73z M34.41,611.27
		c-2.32-0.23-4.59-0.21-6.83,0.09l-0.09-0.42c2.57-0.8,4.73-1.7,6.49-2.7l23.54-13.47L61.63,614L34.41,611.27z"/>
	<path class="st0" d="M80.4,539.63l-42.49,0.69c-5.72,0.09-12.36,0.43-19.92,1.02l-0.01-0.48c5.73-1.2,9.29-2.06,10.68-2.58
		l51.41-19.17l-0.23-14.15L27.3,487.8c-2.08-0.68-5.49-1.43-10.22-2.25l-0.01-0.43c6.01,0.33,11.5,0.46,16.46,0.38l45.97-0.75
		l-0.28-17.09l-76.84,1.25l0.4,24.7l45.69,14.96c3.16,1.02,6.88,1.98,11.14,2.88l0,0.32c-3.67,0.63-7.32,1.6-10.94,2.91L3.4,531.12
		l0.41,25.35l76.84-1.25L80.4,539.63z"/>
	<path class="st0" d="M44.63,451.28c11.25,2.38,21.1,0.91,29.54-4.39s13.8-13.34,16.07-24.1c2.33-11.05,0.61-20.77-5.18-29.17
		c-5.78-8.4-14.59-13.84-26.4-16.34c-11.5-2.43-21.46-1.07-29.89,4.07c-8.42,5.14-13.77,13.08-16.04,23.81
		c-2.4,11.36-0.66,21.26,5.23,29.69C23.86,443.3,32.75,448.77,44.63,451.28z M27.22,408.71c1.22-5.77,4.35-9.85,9.38-12.26
		c5.04-2.4,11.45-2.78,19.24-1.14c7.48,1.58,12.97,4.53,16.45,8.84c3.49,4.31,4.62,9.39,3.38,15.23c-1.2,5.66-4.33,9.78-9.4,12.36
		c-5.07,2.58-11.33,3.08-18.78,1.51c-7.34-1.55-12.87-4.54-16.59-8.98C27.2,419.85,25.97,414.66,27.22,408.71z"/>
	<path class="st0" d="M39.1,354.09c2.09,2.55,5,4.55,8.73,6.01c4.76,1.87,9.35,2.08,13.79,0.65c4.43-1.43,8.91-4.48,13.43-9.16
		c1.76-1.84,3.44-3.54,5.05-5.1c1.61-1.56,3.15-2.84,4.62-3.86c1.47-1.02,2.91-1.71,4.32-2.08c1.41-0.37,2.81-0.28,4.21,0.27
		c1.03,0.41,1.89,1.03,2.58,1.87c0.68,0.85,1.15,1.9,1.41,3.17c0.25,1.27,0.26,2.73,0.04,4.39c-0.23,1.66-0.74,3.5-1.54,5.53
		c-1.35,3.46-3.3,6.65-5.85,9.57c-2.54,2.92-5.6,5.35-9.16,7.29l15.97,6.26c2.35-2.07,4.54-4.75,6.6-8.04
		c2.05-3.28,3.85-6.88,5.39-10.81c1.5-3.83,2.55-7.61,3.17-11.33c0.62-3.73,0.59-7.22-0.07-10.47s-2.05-6.17-4.17-8.74
		c-2.12-2.58-5.17-4.64-9.17-6.21c-2.9-1.13-5.6-1.69-8.12-1.68c-2.52,0.01-4.94,0.5-7.28,1.46c-2.34,0.97-4.62,2.33-6.86,4.08
		c-2.24,1.75-4.52,3.82-6.84,6.21c-1.69,1.76-3.26,3.3-4.73,4.65c-1.47,1.34-2.85,2.43-4.16,3.26c-1.31,0.83-2.56,1.38-3.75,1.64
		s-2.39,0.16-3.59-0.31c-1.1-0.43-1.98-1.1-2.63-2.01s-1.11-2.01-1.33-3.29c-0.23-1.28-0.22-2.73,0.01-4.37
		c0.24-1.64,0.71-3.37,1.43-5.2c0.52-1.33,1.17-2.7,1.95-4.1c0.78-1.4,1.67-2.77,2.67-4.11c1-1.33,2.1-2.58,3.28-3.75
		c1.19-1.17,2.43-2.19,3.73-3.06l-14.92-5.84c-1.88,2.06-3.61,4.45-5.19,7.15c-1.58,2.7-3.1,5.92-4.56,9.64
		c-1.48,3.79-2.48,7.54-3,11.26c-0.51,3.71-0.41,7.2,0.31,10.45C35.61,348.64,37.01,351.54,39.1,354.09z"/>
	<path class="st0" d="M129.61,309.07l-35.93-22.69c-4.83-3.05-10.58-6.4-17.23-10.06l0.26-0.41c5.46,2.13,8.9,3.36,10.35,3.68
		l53.51,12.12l7.55-11.96l-34.56-43.13c-1.37-1.71-3.81-4.2-7.32-7.48l0.23-0.36c4.84,3.57,9.37,6.68,13.57,9.33l38.88,24.56
		l9.13-14.46l-64.97-41.04l-13.19,20.89l30.04,37.54c2.09,2.59,4.67,5.42,7.75,8.51l-0.17,0.27c-3.41-1.48-7-2.67-10.75-3.56
		l-46.89-11.05l-13.54,21.43l64.97,41.04L129.61,309.07z"/>
	<polygon class="st0" points="133.22,163.59 131.93,139.52 121.69,150.56 124.91,172.54 	"/>
	<polygon class="st0" points="178.14,238.65 209.48,204.86 199.18,195.31 179.61,216.41 166.73,204.45 183.82,186.02 173.52,176.48 
		156.43,194.91 143.9,183.28 162.26,163.48 151.93,153.9 121.79,186.39 	"/>
	<path class="st0" d="M229.73,187.59l-18.42-22.94l3.63-2.92c0.84-0.67,1.75-1.12,2.74-1.34c0.99-0.22,2.08-0.27,3.26-0.14
		c1.18,0.13,2.46,0.4,3.84,0.8c1.38,0.41,2.89,0.91,4.52,1.53l21.7,7.94l15.5-12.45l-25.55-8.63c-1.32-0.45-2.73-0.87-4.21-1.26
		c-1.48-0.39-2.95-0.69-4.4-0.9c-1.45-0.21-2.84-0.29-4.18-0.25c-1.34,0.04-2.57,0.29-3.68,0.72l-0.13-0.17
		c1.56-2.22,2.76-4.51,3.59-6.87c0.83-2.36,1.26-4.72,1.29-7.08c0.03-2.36-0.35-4.68-1.13-6.97c-0.78-2.28-2.01-4.47-3.69-6.56
		c-8.72-10.87-20.36-10.46-34.9,1.22l-21.39,17.18l48.11,59.92L229.73,187.59z M208.98,149.75l-5.85,4.7l-13.39-16.67l6.1-4.9
		c6.27-5.03,11.5-4.93,15.71,0.31c2.01,2.51,2.81,5.33,2.39,8.46C213.53,144.72,211.87,147.43,208.98,149.75z"/>
	<path class="st0" d="M284.06,148.44l-20.14-37.11c-2.66-4.9-4.76-8.47-6.31-10.72l0.19-0.1c1.31,0.91,3.46,2.17,6.43,3.77
		l50.87,27.33l15.35-8.33l-36.66-67.54l-14.36,7.8l20.27,37.35c2.5,4.62,4.31,7.64,5.41,9.08l-0.19,0.1
		c-2.03-1.26-4.15-2.48-6.38-3.67L249.43,79.8l-16.39,8.89l36.66,67.54L284.06,148.44z"/>
	<path class="st0" d="M345.74,107.39c8.75,4.76,18.38,5.5,28.88,2.21c10.77-3.37,18.4-9.64,22.89-18.79
		c4.49-9.16,4.93-19.49,1.32-31.02c-3.51-11.22-9.57-19.24-18.18-24.07c-8.61-4.83-18.14-5.6-28.61-2.33
		c-11.08,3.47-18.86,9.84-23.33,19.1c-4.47,9.26-4.9,19.69-1.26,31.28C330.89,94.76,336.98,102.63,345.74,107.39z M344.27,58.6
		c2.05-5.41,5.97-9.03,11.77-10.85c5.63-1.76,10.72-1.03,15.28,2.18c4.56,3.22,8.04,8.62,10.42,16.22c2.28,7.3,2.4,13.52,0.35,18.68
		c-2.06,5.15-5.93,8.62-11.62,10.41c-5.52,1.73-10.65,1.01-15.38-2.15c-4.73-3.16-8.24-8.37-10.51-15.63
		C342.32,70.3,342.22,64.02,344.27,58.6z"/>
	<path class="st0" d="M331.36,31.54c1.89,0.89,3.99,0.97,6.31,0.24c2.32-0.72,4-1.96,5.04-3.71c1.04-1.75,1.24-3.67,0.59-5.74
		c-0.64-2.05-1.89-3.5-3.75-4.36c-1.86-0.86-3.95-0.92-6.27-0.2c-2.25,0.71-3.92,1.95-5.01,3.73c-1.09,1.78-1.32,3.7-0.67,5.74
		C328.22,29.22,329.47,30.65,331.36,31.54z"/>
	<path class="st0" d="M354.84,24.21c1.88,0.87,3.96,0.95,6.25,0.23c2.32-0.72,4.01-1.98,5.06-3.74c1.05-1.77,1.26-3.68,0.62-5.73
		c-0.64-2.05-1.91-3.49-3.8-4.34c-1.89-0.85-3.98-0.91-6.27-0.2s-3.96,1.95-5.02,3.71c-1.06,1.76-1.27,3.67-0.61,5.75
		C351.7,21.9,352.96,23.34,354.84,24.21z"/>
	<path class="st0" d="M436.83,93.74l-4.79-37.31l0.26-0.03c1.2,2.04,2.05,3.36,2.56,3.94l26.47,30.26l20-2.57l0.02,1.32l30.17-0.49
		l-0.22-13.39l-6.43,0.1l-0.81-50.04l6.43-0.11l-0.21-13.39l-30.17,0.49l0.22,13.4l6.43-0.1l0.81,50.04l-6.43,0.1l0.16,10.03
		l-32.26-34.33l21.91-39.77l-20.46,2.62L433.52,49c-0.76,1.97-1.28,3.48-1.58,4.53l-0.27,0.03l-4.62-36.04l-17.17,2.2l9.78,76.22
		L436.83,93.74z"/>
	<polygon class="st0" points="614.61,89.47 586.44,83.59 590.04,66.38 614.64,71.51 617.5,57.77 592.9,52.63 596.4,35.9 
		622.84,41.42 625.71,27.62 582.33,18.57 566.63,93.8 611.75,103.21 	"/>
	<polygon class="st0" points="627.71,3.08 612.98,0 595.8,14.1 607.76,16.6 	"/>
	<path class="st0" d="M619.09,102.24c2.14,2.28,4.88,4.41,8.22,6.36c3.34,1.95,6.99,3.64,10.97,5.07c3.87,1.38,7.67,2.33,11.42,2.84
		c3.75,0.51,7.23,0.38,10.47-0.38c3.23-0.76,6.1-2.23,8.62-4.43c2.51-2.19,4.49-5.3,5.94-9.34c1.05-2.93,1.53-5.65,1.45-8.17
		c-0.09-2.51-0.65-4.93-1.68-7.23c-1.03-2.31-2.45-4.56-4.27-6.74c-1.81-2.19-3.95-4.41-6.41-6.65c-1.81-1.63-3.4-3.16-4.79-4.59
		c-1.39-1.43-2.51-2.78-3.38-4.06c-0.87-1.28-1.46-2.51-1.75-3.7c-0.3-1.19-0.23-2.38,0.21-3.6c0.4-1.11,1.04-2.01,1.94-2.69
		c0.89-0.69,1.97-1.16,3.24-1.43c1.27-0.26,2.73-0.3,4.37-0.11c1.64,0.19,3.38,0.61,5.24,1.28c1.34,0.48,2.73,1.09,4.15,1.83
		c1.42,0.74,2.82,1.59,4.18,2.55c1.36,0.97,2.65,2.02,3.84,3.17c1.2,1.15,2.26,2.37,3.17,3.64l5.41-15.08
		c-2.12-1.82-4.56-3.48-7.3-4.97c-2.75-1.5-6-2.92-9.77-4.27c-3.83-1.37-7.62-2.26-11.34-2.67s-7.21-0.2-10.44,0.61
		c-3.24,0.81-6.09,2.31-8.57,4.47c-2.49,2.17-4.4,5.13-5.75,8.9c-1.72,4.81-1.81,9.41-0.25,13.8c1.55,4.39,4.73,8.78,9.54,13.15
		c1.9,1.7,3.64,3.34,5.25,4.9c1.6,1.56,2.93,3.06,3.99,4.5c1.06,1.44,1.79,2.86,2.2,4.26c0.41,1.4,0.36,2.8-0.14,4.22
		c-0.37,1.04-0.97,1.92-1.79,2.63c-0.82,0.71-1.87,1.21-3.13,1.5c-1.26,0.29-2.73,0.34-4.39,0.16c-1.66-0.18-3.52-0.64-5.57-1.37
		c-3.5-1.25-6.75-3.11-9.74-5.57s-5.51-5.43-7.56-8.94L619.09,102.24z"/>
	<polygon class="st0" points="743.34,149.81 737.9,146.39 764.5,103.99 769.95,107.41 777.06,96.06 751.51,80.03 744.39,91.38 
		749.84,94.8 723.23,137.19 717.79,133.77 710.67,145.12 736.23,161.16 	"/>
	<path class="st0" d="M755.9,175.21l27.1-32.39c3.57-4.27,6.12-7.54,7.65-9.81l0.16,0.14c-0.37,1.55-0.75,4.01-1.13,7.37
		l-6.69,57.35l13.4,11.21l49.32-58.94l-12.54-10.49l-27.27,32.59c-3.37,4.03-5.52,6.82-6.44,8.37l-0.16-0.14
		c0.43-2.34,0.78-4.77,1.06-7.28l6.63-55.45l-14.3-11.97l-49.31,58.94L755.9,175.21z"/>
	<polygon class="st0" points="816.76,232.75 839.34,213.23 855.64,232.07 866.26,222.89 849.96,204.04 864.22,191.7 881.96,212.21 
		892.62,202.99 863.56,169.39 805.44,219.66 	"/>
	<path class="st0" d="M851.35,259.99c-2.43,9.66-0.74,19.17,5.06,28.52c5.96,9.59,13.93,15.42,23.91,17.49
		c9.99,2.06,20.11-0.09,30.37-6.45c9.99-6.2,16.25-14.07,18.78-23.6c2.54-9.54,0.91-18.97-4.88-28.29
		c-6.12-9.87-14.22-15.81-24.31-17.83c-10.09-2.03-20.3,0.16-30.61,6.57C859.89,242.46,853.78,250.33,851.35,259.99z M880.04,251.39
		c6.38-3.96,12.44-5.62,18.19-4.98c5.76,0.63,10.24,3.53,13.44,8.69c3.11,5.01,3.68,10.12,1.7,15.34
		c-1.98,5.22-6.35,9.93-13.12,14.13c-6.5,4.03-12.5,5.7-18,4.99c-5.51-0.7-9.83-3.59-12.98-8.66c-3.05-4.92-3.63-10.06-1.76-15.43
		C869.4,260.1,873.57,255.41,880.04,251.39z"/>
	<path class="st0" d="M887.19,344.5l27.32-10.92l1.73,4.33c0.4,1,0.56,2,0.48,3.01c-0.08,1.01-0.35,2.06-0.82,3.15
		c-0.47,1.09-1.09,2.24-1.88,3.44c-0.79,1.2-1.72,2.49-2.78,3.88l-13.93,18.44l7.38,18.46l15.71-21.92
		c0.82-1.13,1.63-2.35,2.43-3.66c0.8-1.3,1.52-2.62,2.14-3.94c0.63-1.33,1.11-2.64,1.46-3.93c0.34-1.3,0.47-2.54,0.38-3.73l0.2-0.08
		c1.66,2.14,3.5,3.96,5.52,5.44c2.02,1.48,4.15,2.58,6.4,3.3c2.25,0.72,4.58,1.03,6.99,0.95c2.41-0.08,4.86-0.61,7.35-1.61
		c12.94-5.17,15.95-16.42,9.02-33.73l-10.18-25.48l-71.36,28.52L887.19,344.5z M946.5,320.79l2.91,7.27
		c2.98,7.46,1.35,12.45-4.88,14.94c-2.99,1.2-5.92,1.13-8.79-0.18c-2.83-1.3-4.93-3.67-6.31-7.11l-2.79-6.97L946.5,320.79z"/>
	<path class="st0" d="M908.95,406.55l41.82-7.56c5.63-1.01,12.12-2.43,19.49-4.23l0.09,0.47c-5.47,2.11-8.84,3.54-10.12,4.28
		l-47.63,27.23l2.51,13.92l54.62,8.43c2.16,0.34,5.65,0.52,10.45,0.56l0.08,0.42c-5.98,0.65-11.42,1.41-16.3,2.29l-45.25,8.18
		l3.04,16.82l75.62-13.66l-4.39-24.31l-47.51-7.37c-3.28-0.5-7.1-0.84-11.46-1.03l-0.05-0.32c3.52-1.22,6.96-2.77,10.32-4.64
		l42.03-23.55l-4.51-24.95l-75.62,13.67L908.95,406.55z"/>
	<path class="st0" d="M921.5,482.44l-0.48,18.75l16.95,5.85l-0.7,27.32l-17.23,5.02l-0.49,18.86l77.53-25.35l0.53-20.52
		L921.5,482.44z M983.63,522.04c-2.69,0.18-5,0.55-6.95,1.11l-26.03,7.59l0.51-19.66l25.82,9.03c2.2,0.77,4.42,1.27,6.66,1.51
		L983.63,522.04z"/>
	<polygon class="st0" points="976.79,590.08 915.1,578.57 911.91,595.63 973.6,607.15 969.57,628.7 983.43,631.28 994.64,571.23 
		980.79,568.64 	"/>
	<polygon class="st0" points="965.62,642.58 917.75,627.98 919.63,621.83 906.81,617.92 898,646.78 910.82,650.68 912.7,644.54 
		960.57,659.14 958.7,665.29 971.51,669.2 980.31,640.34 967.5,636.44 	"/>
	<path class="st0" d="M888.81,670.54l34.41,15.21l-0.1,0.24c-2.37-0.03-3.94,0.02-4.7,0.15l-39.59,6.99l-8.07,18.24l-8.8,13.32
		l11.28,13.94l-15.06,22.8l-17.28-4.86l-10.4,15.74l79.19,19.54l11.31-17.12l-46.41-62.59l43.91-9.38l22.69,39.32l8.34-18.87
		l-20.74-32.37c-1.29-1.67-2.31-2.9-3.05-3.69l0.11-0.24l33.23,14.69l6.99-15.83l-70.28-31.07L888.81,670.54z M899.43,770.38
		c1.46,1.82,3.07,3.42,4.85,4.81l-0.23,0.36c-2.38-1.26-4.53-2.18-6.48-2.73l-26.1-7.34l10.83-16.41L899.43,770.38z"/>
	<polygon class="st0" points="873.13,817.91 835.15,785.31 839.34,780.43 829.18,771.7 809.53,794.6 819.69,803.33 823.88,798.44 
		861.86,831.05 857.67,835.93 867.84,844.65 887.49,821.76 877.32,813.03 	"/>
	<path class="st0" d="M748.85,848.63l21.57,30.82l-0.22,0.16c-2.01-1.26-3.38-2.02-4.09-2.3l-37.5-14.51l-16.9,11.83l-14.89,7.02
		l2.4,17.77l-24.72,11.66l-12.24-13.13l-17.06,8.05l57.49,57.85l18.56-8.75l-7.21-78.59l43.53,15.08l-0.93,45.39l16.91-11.83
		l-0.99-38.42c-0.25-2.1-0.48-3.68-0.71-4.74l0.22-0.16l20.84,29.77l14.18-9.93l-44.07-62.95L748.85,848.63z M706.35,946.95
		c-1.37-2.32-2.73-4.22-4.11-5.71l-18.48-19.84l17.79-8.39l3.55,27.12c0.3,2.31,0.85,4.52,1.65,6.63L706.35,946.95z"/>
	<path class="st0" d="M621.95,912.07l7.84,28.36l-4.49,1.24c-1.04,0.29-2.05,0.34-3.04,0.15c-1-0.19-2.01-0.58-3.05-1.16
		c-1.03-0.58-2.1-1.34-3.21-2.25c-1.11-0.92-2.29-1.98-3.55-3.19l-16.79-15.88l-19.16,5.3l20.05,18.03
		c1.04,0.93,2.16,1.88,3.36,2.82c1.21,0.95,2.44,1.81,3.69,2.57c1.25,0.77,2.49,1.39,3.74,1.88c1.24,0.49,2.47,0.76,3.67,0.8
		l0.05,0.21c-2.32,1.42-4.32,3.04-6.02,4.88c-1.7,1.84-3.02,3.84-3.98,6c-0.96,2.16-1.53,4.44-1.72,6.84
		c-0.19,2.4,0.08,4.9,0.79,7.48c3.72,13.42,14.56,17.66,32.53,12.69l26.45-7.31l-20.48-74.07L621.95,912.07z M631.43,975.73
		c-7.75,2.14-12.52-0.02-14.31-6.5c-0.85-3.1-0.47-6,1.15-8.71c1.59-2.67,4.18-4.49,7.77-5.48l7.23-2l5.7,20.61L631.43,975.73z"/>
	<circle class="st0" cx="505.14" cy="969.83" r="20.67"/>
</g>
</svg>
