<svg width="427" height="91" viewBox="0 0 427 91" fill="none" xmlns="http://www.w3.org/2000/svg">
<g clip-path="url(#clip0)">
<path d="M137.752 43.3192C133.821 46.658 128.551 46.7001 127.075 46.7001C125.13 46.7001 118.895 46.6098 114.363 41.8333C113.811 41.2318 113.205 40.4437 112.791 39.7038L117.922 36.1364C119.357 38.266 122.033 41.0513 128.047 41.0513C128.323 41.0513 129.482 41.0513 130.454 40.8227C131.15 40.6843 134.337 39.8 134.337 36.744C134.337 36.4192 134.289 35.5409 133.737 34.7949C132.627 33.3151 129.668 32.894 128.053 32.527L124.17 31.6487C122.508 31.2757 120.701 30.9088 119.225 30.1207C117.7 29.3327 114.555 27.2452 114.555 22.5228C114.555 21.7829 114.645 19.6473 115.804 17.7042C117.28 15.2017 120.845 12.3262 127.453 12.3262C130.364 12.3262 136.096 12.7894 140.627 18.9495L135.585 22.7033C134.571 21.0791 132.254 17.8366 127.123 17.8366C126.799 17.8366 122.688 17.7885 121.343 20.3391C121.067 20.8505 120.971 21.3137 120.971 21.819C120.971 22.3724 121.109 22.8357 121.385 23.2989C122.171 24.6404 123.972 25.0615 126.979 25.7112L130.352 26.4511C133.449 27.1489 136.87 28.0754 139.042 30.62C139.967 31.6367 140.939 33.1226 140.939 36.1364C140.945 39.1022 140.021 41.3762 137.752 43.3192Z" fill="#32293C"/>
<path d="M145.566 19.0879V13.4812H151.07V19.0879H145.566ZM145.566 45.8699V22.6973H151.07V45.8639H145.566V45.8699Z" fill="#32293C"/>
<path d="M186.198 45.8699V31.6909C186.198 30.8126 186.012 27.1971 182.315 27.1971C181.439 27.1971 179.446 27.522 178.198 29.5613C177.136 31.2276 177.088 33.1286 177.088 34.9815V45.8699H171.584V32.894C171.584 32.3827 171.536 31.8773 171.536 31.366C171.536 30.9028 171.536 29.2785 170.288 28.1235C169.363 27.2873 168.205 27.2452 167.791 27.2452C167.239 27.2452 166.032 27.3836 164.88 28.3581C162.617 30.3072 162.569 33.5497 162.569 36.1425V45.876H157.024V22.6973H162.569L162.617 25.2901C162.989 24.7788 163.127 24.6404 163.356 24.4539C164.142 23.714 166.638 21.9995 169.873 21.9995C172.508 21.9995 175.005 23.2027 176.301 25.5187C176.715 25.0074 177.178 24.3577 178.426 23.5275C179.398 22.8778 181.013 21.9995 183.743 21.9995C187.254 21.9995 190.399 23.5275 191.372 27.143C191.648 28.2077 191.696 29.1342 191.696 31.2216V45.8639H186.198V45.8699Z" fill="#32293C"/>
<path d="M219.022 39.3788C218.097 41.743 215.09 46.5616 208.206 46.5616C207.234 46.5616 205.248 46.5135 202.985 45.4968C200.584 44.432 196.191 41.1895 196.191 34.1932C196.191 31.6907 196.887 29.8379 197.205 29.0017C198.177 26.6856 201.136 22.0054 208.02 22.0054C208.897 22.0054 210.931 22.0956 213.104 23.0702C215.601 24.1349 219.898 27.2391 219.946 34.1932C219.946 35.0234 219.898 37.2011 219.022 39.3788ZM207.924 27.0105C207.414 27.0105 206.028 27.1007 204.779 27.8888C203.579 28.6768 201.959 30.5778 201.959 34.0489C201.959 35.1618 202.049 36.1363 202.421 37.2011C202.793 38.314 204.407 41.4663 208.2 41.4663C212.408 41.4663 214.304 37.7606 214.166 34.097C214.076 30.4815 211.993 27.0105 207.924 27.0105Z" fill="#32293C"/>
<path d="M239.175 45.8699V34.055C239.175 32.2503 239.175 31.366 238.947 30.4877C238.299 27.7987 236.222 27.4317 235.112 27.4317C234.512 27.4317 233.354 27.522 232.201 28.4965C230.539 29.8861 230.029 31.8352 230.029 35.8177V45.8699H224.435V22.6973H230.029V25.4285C230.119 25.2901 230.581 24.6885 231.043 24.2253C233.216 22.186 236.361 21.9995 237.147 21.9995C240.568 21.9995 242.554 23.7621 243.293 24.8269C244.769 26.9565 244.631 29.8801 244.631 32.2383V45.8639H239.175V45.8699Z" fill="#32293C"/>
<path d="M263.35 42.9041C262.516 45.7796 261.316 50.6885 259.143 52.4511C257.709 53.6121 256.232 53.8407 254.426 53.8407C252.667 53.8407 252.025 53.7024 251.143 53.5159V48.6973C253.364 48.974 254.612 48.6973 255.44 47.9994C256.136 47.3497 256.316 46.6579 256.412 46.3331L248.052 22.6973H254.018L259.197 39.9805L263.542 22.6973H269.226L263.35 42.9041Z" fill="#32293C"/>
<path d="M272.647 19.0879V13.4812H278.151V19.0879H272.647ZM272.647 45.8699V22.6973H278.151V45.8639H272.647V45.8699Z" fill="#32293C"/>
<path d="M318.273 45.8701L309.582 30.4878L304.264 36.6058V45.8761H298.209V13.1565H304.264V28.1718L317.348 13.1565H324.514L313.831 25.4827L325.253 45.8701H318.273Z" fill="#32293C"/>
<path d="M341.895 45.8701L341.757 44.0653C340.881 44.8053 340.095 45.1782 339.633 45.3647C338.108 46.0626 336.674 46.4295 334.963 46.4295C333.853 46.4295 329.694 46.2912 327.569 42.8622C327.197 42.2606 326.507 41.0093 326.555 39.1565C326.555 37.8571 326.879 35.2643 329.7 33.3633C331.596 32.0639 333.397 31.7872 335.527 31.3721C338.948 30.6743 340.197 30.3976 341.907 29.796C341.907 29.1944 341.859 28.4545 341.583 27.895C341.121 27.0167 339.963 26.3189 337.934 26.3189C335.81 26.3189 334.465 26.9686 333.865 27.7567C333.217 28.5447 333.265 29.4712 333.265 29.796L327.623 29.4712C327.671 28.4545 327.851 25.9941 330.12 24.1412C331.554 22.9381 333.727 22.0117 337.748 22.0117C341.541 22.0117 343.756 22.7997 345.19 23.8164C346.163 24.5142 346.667 25.2962 346.853 25.6692C347.453 26.8724 347.453 28.4966 347.453 29.796V42.1222C347.453 43.8849 347.543 44.3902 348.467 45.8761H341.895V45.8701ZM341.895 34.3319C340.971 34.7951 339.771 35.2583 337.502 35.6313C336.254 35.8659 334.915 35.908 333.757 36.6058C332.971 37.1172 332.419 37.9052 332.419 38.9219C332.419 40.3115 333.433 41.653 336.212 41.653C339.261 41.653 341.067 40.0769 341.571 39.0121C341.943 38.2722 341.895 37.6225 341.895 36.8825V34.3319ZM339.627 19.3166H335.467L337.778 13.1565H344.62L339.627 19.3166Z" fill="#32293C"/>
<path d="M359.138 32.1541C358.724 33.4535 358.724 34.6085 358.724 35.956V45.87H353.359V22.6974H358.724V25.988C359.096 25.2902 359.558 24.5983 360.111 24.087C361.959 22.2823 364.966 22.186 365.614 22.186H366.076V27.8829C364.912 27.8889 360.477 27.8889 359.138 32.1541Z" fill="#32293C"/>
<path d="M391.218 39.3788C390.293 41.743 387.286 46.5616 380.402 46.5616C379.43 46.5616 377.444 46.5135 375.181 45.4968C372.78 44.432 368.387 41.1895 368.387 34.1932C368.387 31.6907 369.083 29.8379 369.401 29.0017C370.374 26.6856 373.332 22.0054 380.216 22.0054C381.093 22.0054 383.127 22.0956 385.3 23.0702C387.797 24.1349 392.094 27.2391 392.142 34.1932C392.142 35.0234 392.094 37.2011 391.218 39.3788ZM380.12 27.0105C379.61 27.0105 378.224 27.1007 376.975 27.8888C375.775 28.6768 374.155 30.5778 374.155 34.0489C374.155 35.1618 374.245 36.1363 374.617 37.2011C374.989 38.314 376.603 41.4663 380.396 41.4663C384.604 41.4663 386.5 37.7606 386.362 34.097C386.272 30.4815 384.19 27.0105 380.12 27.0105Z" fill="#32293C"/>
<path d="M396.715 45.8701V13.1565H402.357V45.8701H396.715Z" fill="#32293C"/>
<path d="M421.124 42.9042C420.29 45.7797 419.09 50.6886 416.917 52.4512C415.483 53.6122 414.006 53.8408 412.2 53.8408C410.441 53.8408 409.799 53.7024 408.917 53.516V48.6974C411.137 48.9741 412.386 48.6974 413.214 47.9995C413.91 47.3498 414.09 46.658 414.186 46.3332L405.82 22.7034H411.786L416.965 39.9866L421.31 22.7034H426.994L421.124 42.9042Z" fill="#32293C"/>
<path d="M126.037 76.3696C124.068 78.042 121.427 78.0661 120.689 78.0661C119.717 78.0661 116.59 78.0179 114.321 75.6297C114.045 75.3289 113.745 74.9319 113.535 74.5589L116.104 72.7722C116.824 73.837 118.162 75.2326 121.175 75.2326C121.313 75.2326 121.895 75.2327 122.381 75.1184C122.73 75.0462 124.326 74.607 124.326 73.073C124.326 72.9106 124.302 72.4714 124.026 72.0985C123.468 71.3525 121.985 71.148 121.175 70.9615L119.231 70.5223C118.396 70.3358 117.496 70.1494 116.752 69.7583C115.99 69.3613 114.411 68.3206 114.411 65.9504C114.411 65.5774 114.459 64.5126 115.035 63.5381C115.774 62.2868 117.562 60.843 120.869 60.843C122.327 60.843 125.202 61.0776 127.471 64.1637L124.944 66.0466C124.434 65.2345 123.276 63.6103 120.707 63.6103C120.545 63.6103 118.486 63.5862 117.814 64.8615C117.676 65.1142 117.628 65.3488 117.628 65.6015C117.628 65.8782 117.7 66.1128 117.838 66.3474C118.234 67.0212 119.135 67.2317 120.641 67.5566L122.333 67.9296C123.888 68.2785 125.598 68.7417 126.685 70.017C127.147 70.5283 127.633 71.2683 127.633 72.7782C127.639 74.2521 127.171 75.3891 126.037 76.3696Z" fill="#32293C"/>
<path d="M139.216 77.6449V75.1363L148.159 63.9952H139.985V61.2581H151.982V63.8569L143.388 74.8837H151.982V77.6449H139.216Z" fill="#32293C"/>
<path d="M174.327 77.6449L173.378 74.4385H167.238L166.29 77.6449H163.001L168.535 61.2581H172.01L177.591 77.6449H174.327ZM170.317 64.1997L168.049 71.7495H172.562L170.317 64.1997Z" fill="#32293C"/>
<path d="M199.942 77.6449L195.591 69.9388L192.926 73.0008V77.6449H189.889V61.2581H192.926V68.7777L199.48 61.2581H203.069L197.721 67.4302L203.441 77.6449H199.942Z" fill="#32293C"/>
<path d="M225.605 77.6449L221.254 69.9388L218.589 73.0008V77.6449H215.552V61.2581H218.589V68.7777L225.143 61.2581H228.732L223.385 67.4302L229.104 77.6449H225.605Z" fill="#32293C"/>
<path d="M253.88 75.714C253.508 76.111 252.559 77.0615 251.101 77.5969C250.591 77.7834 249.642 78.0601 248.25 78.0601C245.933 78.0601 244.175 77.2961 242.644 75.5275C241.114 73.7889 240.466 71.7436 240.466 69.4696C240.466 68.9342 240.49 67.683 240.952 66.2873C242.014 63.0148 244.817 60.8311 248.316 60.8311C251.467 60.8311 253.34 62.5516 254.108 63.4299C254.966 64.4044 256.166 66.3114 256.148 69.4456C256.154 70.4683 256.034 73.3739 253.88 75.714ZM252.097 65.8061C251.239 64.4104 249.943 63.6464 248.298 63.6464C247.278 63.6464 246.54 63.9713 246.215 64.1337C245.057 64.7593 243.623 66.2933 243.623 69.3553C243.623 69.981 243.647 73.0009 245.939 74.5108C246.936 75.1605 247.932 75.2087 248.346 75.2087C248.67 75.2087 249.414 75.1846 250.225 74.8116C251.431 74.2522 253.003 72.8625 253.075 69.7764C253.094 68.4289 252.841 66.9851 252.097 65.8061Z" fill="#32293C"/>
<path d="M269.328 77.6449V61.2581H272.407V74.8596H278.889V77.6449H269.328Z" fill="#32293C"/>
<path d="M291.613 77.6449V61.2581H294.691V74.8596H301.173V77.6449H291.613Z" fill="#32293C"/>
<path d="M313.801 77.645V61.2582H325.426V63.9953H316.808V67.8514H324.706V70.4983H316.808V74.8838H326.003V77.645H313.801ZM320.007 59.652H317.948L319.173 56.8667H322.51L320.007 59.652Z" fill="#32293C"/>
<path d="M349.926 77.6451L349.902 76.2495C348.581 77.4767 347.237 78.0602 345.406 78.0602C344.41 78.0602 342.141 77.9218 340.173 75.9968C339.224 75.0463 337.742 73.001 337.742 69.6141C337.742 67.5267 338.366 65.3429 339.663 63.6946C340.401 62.7682 342.351 60.8372 345.658 60.8372C346.12 60.8372 347.165 60.8853 348.347 61.3244C349.415 61.7395 351.474 62.8344 352.536 65.6678L349.619 66.8288C349.343 66.0408 348.485 63.6044 345.634 63.6044C345.076 63.6044 343.78 63.6946 342.693 64.7895C341.907 65.6016 341.073 66.9973 341.073 69.5239C341.073 70.1976 341.073 72.6581 342.951 74.2342C343.762 74.908 344.668 75.1606 345.706 75.1606C347.327 75.1606 348.761 74.3726 349.391 72.8386C349.529 72.5137 349.643 72.1167 349.739 71.3767H345.664V68.6817H352.542V77.6451H349.926Z" fill="#32293C"/>
<path d="M366.118 77.6449V61.2581H369.131V77.6449H366.118Z" fill="#32293C"/>
<path d="M395.995 74.3003C395.461 75.9486 393.588 78.0602 389.579 78.0602C387.658 78.0602 385.732 77.5969 384.394 76.1111C384.183 75.9005 383.631 75.2267 383.349 74.3484C383.097 73.5123 383.097 72.7483 383.097 71.0037V61.2522H386.176V71.3285C386.176 72.3031 386.176 72.652 386.338 73.1393C386.638 74.1138 387.52 75.0884 389.699 75.0884C390.095 75.0884 392.34 75.0884 393.012 73.2295C393.198 72.6941 393.222 72.255 393.222 71.1661V61.2522H396.277V70.7029C396.271 72.5858 396.295 73.3739 395.995 74.3003Z" fill="#32293C"/>
<path d="M422.325 77.6449L422.625 64.1817L419.084 77.6449H416.329L412.788 64.1817L413.088 77.6449H410.099V61.2581H414.546L417.745 73.4219L420.896 61.2581H425.32V77.6449H422.325Z" fill="#32293C"/>
<path d="M45.3972 0C20.3639 0 0 20.4114 0 45.503C0 70.5946 20.3639 91.006 45.3972 91.006C70.4305 91.006 90.7944 70.5946 90.7944 45.503C90.7884 20.4114 70.4244 0 45.3972 0ZM45.3972 86.1273C28.8144 86.1273 14.5662 76.1411 8.28841 61.8417H47.5578C48.5901 66.2693 52.5513 69.578 57.2746 69.578C62.7842 69.578 67.2615 65.0902 67.2615 59.5678C67.2615 54.0453 62.7842 49.5576 57.2746 49.5576C52.4072 49.5576 48.35 53.0648 47.4678 57.6909H7.43016C7.19609 57.6909 6.97403 57.739 6.76396 57.8112C5.53361 53.931 4.86141 49.7922 4.86141 45.503C4.86141 23.0643 23.0107 4.87274 45.3972 4.87274C62.3281 4.87274 76.8223 15.28 82.8901 30.0546H41.9462C40.8899 25.6631 36.9467 22.3906 32.2474 22.3906C26.7378 22.3906 22.2605 26.8783 22.2605 32.4007C22.2605 37.9232 26.7378 42.4109 32.2474 42.4109C36.9467 42.4109 40.8899 39.1384 41.9462 34.7469H84.4805C85.4168 38.1758 85.9269 41.7793 85.9269 45.503C85.9269 67.9357 67.7777 86.1273 45.3972 86.1273ZM52.1491 59.5678C52.1491 56.7344 54.4418 54.4304 57.2746 54.4304C60.1075 54.4304 62.4001 56.7284 62.4001 59.5678C62.4001 62.4072 60.1075 64.7052 57.2746 64.7052C54.4418 64.7052 52.1491 62.4012 52.1491 59.5678ZM37.3729 32.4007C37.3729 35.2341 35.0802 37.5382 32.2474 37.5382C29.4205 37.5382 27.1219 35.2402 27.1219 32.4007C27.1219 29.5613 29.4145 27.2633 32.2474 27.2633C35.0742 27.2633 37.3729 29.5613 37.3729 32.4007Z" fill="#32293C"/>
</g>
<defs>
<clipPath id="clip0">
<rect width="427" height="91" fill="white"/>
</clipPath>
</defs>
</svg>
